<svg width="479" height="178" viewBox="0 0 479 178" fill="none" xmlns="http://www.w3.org/2000/svg">
<path d="M13.8375 71.8C16.0375 71.8 17.5708 71.6667 18.4375 71.4C19.3708 71.1333 19.9042 70.8 20.0375 70.4C20.1708 69.9333 20.0708 69.4 19.7375 68.8C19.4708 68.2 19.2375 67.6 19.0375 67C18.8375 66.3333 18.8042 65.6667 18.9375 65C19.0708 64.2667 19.7042 63.5667 20.8375 62.9C21.7708 62.3667 22.6375 62.2333 23.4375 62.5C24.3042 62.7667 24.9375 63.2667 25.3375 64C25.8042 64.7333 26.0042 65.6333 25.9375 66.7C25.8708 67.7 25.4042 68.6667 24.5375 69.6C23.7375 70.5333 22.4708 71.3333 20.7375 72C19.0042 72.6667 16.7042 73 13.8375 73C10.6375 73 8.1375 72.7 6.3375 72.1C4.60417 71.4333 3.3375 70.4667 2.5375 69.2C1.7375 67.9333 1.27083 66.4 1.1375 64.6C1.00417 62.7333 0.9375 60.5333 0.9375 58C0.870833 50 0.870833 43.4333 0.9375 38.3C0.9375 33.1667 0.9375 29.1 0.9375 26.1V18C0.9375 16.4 1.00417 14.7333 1.1375 13C1.27083 11.2 1.7375 9.56666 2.5375 8.1C3.3375 6.63333 4.60417 5.43333 6.3375 4.49999C8.07083 3.49999 10.5375 3 13.7375 3C16.6042 3 18.9042 3.33333 20.6375 3.99999C22.3708 4.66666 23.6375 5.46667 24.4375 6.4C25.3042 7.33333 25.7708 8.33333 25.8375 9.4C25.9042 10.4 25.7042 11.2667 25.2375 12C24.8375 12.7333 24.2042 13.2667 23.3375 13.6C22.5375 13.8667 21.6708 13.7 20.7375 13.1C19.6042 12.4333 18.9708 11.7667 18.8375 11.1C18.7042 10.3667 18.7375 9.69999 18.9375 9.09999C19.1375 8.43333 19.3708 7.8 19.6375 7.19999C19.9708 6.59999 20.0708 6.1 19.9375 5.7C19.8042 5.23333 19.2708 4.86667 18.3375 4.6C17.4708 4.33333 15.9375 4.2 13.7375 4.2C12.4042 4.2 11.4042 4.66666 10.7375 5.6C10.0708 6.46666 9.57083 7.6 9.2375 9C8.90417 10.3333 8.70417 11.8333 8.6375 13.5C8.6375 15.1 8.6375 16.6 8.6375 18V27.6C8.6375 30.8667 8.60417 35.0333 8.5375 40.1C8.5375 45.1 8.57083 51.0667 8.6375 58C8.6375 60.2 8.67083 62.1667 8.7375 63.9C8.80417 65.5667 8.97083 67 9.2375 68.2C9.57083 69.3333 10.0708 70.2333 10.7375 70.9C11.4708 71.5 12.5042 71.8 13.8375 71.8ZM61.232 13.8C61.6987 11 62.3987 8.8 63.332 7.19999C64.332 5.6 65.3654 4.46666 66.432 3.8C67.5654 3.13333 68.6654 2.86666 69.732 3C70.7987 3.13333 71.6654 3.5 72.332 4.1C72.9987 4.63333 73.3987 5.36666 73.532 6.29999C73.732 7.16666 73.4654 8.03333 72.732 8.9C71.8654 9.83333 71.0654 10.3333 70.332 10.4C69.6654 10.4 68.9987 10.2333 68.332 9.9C67.732 9.56666 67.1654 9.2 66.632 8.8C66.0987 8.33333 65.5987 8.13333 65.132 8.2C64.6654 8.26667 64.232 8.73333 63.832 9.6C63.432 10.4667 63.032 11.9667 62.632 14.1C61.8987 17.5 61.4987 20.5 61.432 23.1C61.3654 25.7 61.1654 27.8667 60.832 29.6C60.4987 31.3333 59.7987 32.6333 58.732 33.5C57.732 34.3667 55.9654 34.8 53.432 34.8C56.4987 34.8 59.032 35.1667 61.032 35.9C63.0987 36.5667 64.732 37.6333 65.932 39.1C67.1987 40.5 68.0654 42.3 68.532 44.5C69.0654 46.6333 69.332 49.1333 69.332 52C69.3987 55.2 69.432 58.0333 69.432 60.5C69.432 62.9667 69.532 65.0333 69.732 66.7C69.9987 68.3 70.432 69.5333 71.032 70.4C71.632 71.2667 72.5987 71.7 73.932 71.7V73C70.732 73 68.2654 72.5333 66.532 71.6C64.7987 70.6667 63.532 69.3 62.732 67.5C61.932 65.7 61.4654 63.5 61.332 60.9C61.2654 58.3 61.232 55.3333 61.232 52C61.232 48 60.8654 44.9667 60.132 42.9C59.3987 40.7667 58.4987 39.2333 57.432 38.3C56.3654 37.3667 55.232 36.8667 54.032 36.8C52.832 36.6667 51.7987 36.6 50.932 36.6L51.032 71.8H53.032V73H40.332V71.8H42.832V4.2H40.332V3H53.032V4.2H50.932V34C53.7987 34 55.7987 33.7 56.932 33.1C58.0654 32.4333 58.7987 31.3333 59.132 29.8C59.532 28.2 59.7654 26.1333 59.832 23.6C59.9654 21 60.432 17.7333 61.232 13.8ZM112.727 19C112.727 19 112.494 19.6333 112.027 20.9C111.627 22.1 111.094 23.7333 110.427 25.8C109.827 27.8 109.094 30.1 108.227 32.7C107.427 35.3 106.594 37.9333 105.727 40.6C103.661 46.9333 101.327 54.1 98.7273 62.1V71.8H100.727V73H88.0273V71.8H90.5273V4.2H88.0273V3H100.727V4.2H98.6273L98.7273 58.2C98.7273 58.2 98.9273 57.6 99.3273 56.4C99.794 55.1333 100.361 53.5 101.027 51.5C101.694 49.4333 102.427 47.1333 103.227 44.6C104.094 42 104.961 39.3333 105.827 36.6C107.894 30.2667 110.194 23.1 112.727 15.1V4.2H110.227V3H122.927V4.2H120.827L120.927 71.8H122.927V73H110.227V71.8H112.727V19ZM167.543 3C167.543 3 167.543 4 167.543 6C167.543 7.93333 167.543 10.5 167.543 13.7C167.543 16.9 167.543 20.5667 167.543 24.7C167.543 28.7667 167.543 32.9333 167.543 37.2C167.61 41.4667 167.643 45.6667 167.643 49.8C167.643 53.8667 167.643 57.5333 167.643 60.8C167.643 64 167.643 66.6333 167.643 68.7C167.643 70.7 167.643 71.7333 167.643 71.8H173.243V77.2H172.043V73H135.943V77.2H134.743V71.8H139.543C141.143 68.8667 142.576 65.3333 143.843 61.2C144.976 57.7333 145.976 53.4667 146.843 48.4C147.776 43.2667 148.243 37.3667 148.243 30.7V3H167.543ZM149.643 4.2V30.6C149.643 37.2667 149.176 43.1667 148.243 48.3C147.376 53.3667 146.41 57.6667 145.343 61.2C144.076 65.3333 142.643 68.8667 141.043 71.8H159.443V4.2H149.643ZM210.177 13.8C210.644 11 211.344 8.8 212.277 7.19999C213.277 5.6 214.311 4.46666 215.377 3.8C216.511 3.13333 217.611 2.86666 218.677 3C219.744 3.13333 220.611 3.5 221.277 4.1C221.944 4.63333 222.344 5.36666 222.477 6.29999C222.677 7.16666 222.411 8.03333 221.677 8.9C220.811 9.83333 220.011 10.3333 219.277 10.4C218.611 10.4 217.944 10.2333 217.277 9.9C216.677 9.56666 216.111 9.2 215.577 8.8C215.044 8.33333 214.544 8.13333 214.077 8.2C213.611 8.26667 213.177 8.73333 212.777 9.6C212.377 10.4667 211.977 11.9667 211.577 14.1C210.844 17.5 210.444 20.5 210.377 23.1C210.311 25.7 210.111 27.8667 209.777 29.6C209.444 31.3333 208.744 32.6333 207.677 33.5C206.677 34.3667 204.911 34.8 202.377 34.8C205.444 34.8 207.977 35.1667 209.977 35.9C212.044 36.5667 213.677 37.6333 214.877 39.1C216.144 40.5 217.011 42.3 217.477 44.5C218.011 46.6333 218.277 49.1333 218.277 52C218.344 55.2 218.377 58.0333 218.377 60.5C218.377 62.9667 218.477 65.0333 218.677 66.7C218.944 68.3 219.377 69.5333 219.977 70.4C220.577 71.2667 221.544 71.7 222.877 71.7V73C219.677 73 217.211 72.5333 215.477 71.6C213.744 70.6667 212.477 69.3 211.677 67.5C210.877 65.7 210.411 63.5 210.277 60.9C210.211 58.3 210.177 55.3333 210.177 52C210.177 48 209.811 44.9667 209.077 42.9C208.344 40.7667 207.444 39.2333 206.377 38.3C205.311 37.3667 204.177 36.8667 202.977 36.8C201.777 36.6667 200.744 36.6 199.877 36.6L199.977 71.8H201.977V73H189.277V71.8H191.777V4.2H189.277V3H201.977V4.2H199.877V34C202.744 34 204.744 33.7 205.877 33.1C207.011 32.4333 207.744 31.3333 208.077 29.8C208.477 28.2 208.711 26.1333 208.777 23.6C208.911 21 209.377 17.7333 210.177 13.8ZM253.673 54.8L246.473 7.9L239.773 57.9C239.773 56.9 240.439 56.1333 241.773 55.6C243.173 55.0667 244.673 54.8 246.273 54.8H253.673ZM253.873 55.8H245.873C245.273 55.8 244.606 55.8667 243.873 56C243.206 56.0667 242.539 56.2667 241.873 56.6C241.273 56.8667 240.739 57.2667 240.273 57.8C239.873 58.2667 239.639 58.9 239.573 59.7L237.973 72H239.673V73C239.473 73 239.073 73 238.473 73C237.939 73 237.406 73 236.873 73C236.339 73 235.873 73 235.473 73C235.006 73 234.773 72.9667 234.773 72.9V72H236.373C236.373 71.9333 236.506 70.9333 236.773 69C237.039 67 237.373 64.4333 237.773 61.3C238.239 58.1 238.739 54.4667 239.273 50.4C239.806 46.3333 240.339 42.2 240.873 38C242.139 28.0667 243.573 16.8 245.173 4.2H242.673V3H253.473L265.973 72H267.973V73H253.673V72H256.173L253.873 55.8ZM320.101 8.8V7.6C322.567 7.53333 324.601 7.26666 326.201 6.79999C327.801 6.33333 329.067 5.83333 330.001 5.3C331.067 4.63333 331.867 3.9 332.401 3.09999L332.501 71.8H334.501V73H321.801V71.8H324.301V8.8H320.101ZM379.822 58C379.822 60.2 379.722 62.2333 379.522 64.1C379.322 65.9 378.789 67.4667 377.922 68.8C377.122 70.1333 375.822 71.1667 374.022 71.9C372.289 72.6333 369.889 73 366.822 73C363.622 73 361.089 72.7 359.222 72.1C357.422 71.4333 356.055 70.4667 355.122 69.2C354.255 67.9333 353.689 66.4 353.422 64.6C353.222 62.7333 353.122 60.5333 353.122 58C353.055 50 353.022 43.4333 353.022 38.3C353.089 33.1667 353.122 29.1 353.122 26.1V18C353.122 16.4 353.222 14.7333 353.422 13C353.689 11.2 354.255 9.56666 355.122 8.1C356.055 6.63333 357.422 5.43333 359.222 4.49999C361.089 3.49999 363.622 3 366.822 3C369.889 3 372.289 3.36666 374.022 4.1C375.755 4.83333 377.055 5.86666 377.922 7.19999C378.789 8.53333 379.322 10.1333 379.522 12C379.722 13.8 379.822 15.8 379.822 18V58ZM378.222 18C378.289 16.2667 378.222 14.6 378.022 13C377.889 11.3333 377.455 9.86666 376.722 8.59999C375.989 7.26666 374.822 6.2 373.222 5.39999C371.689 4.6 369.555 4.2 366.822 4.2C365.489 4.2 364.455 4.66666 363.722 5.6C363.055 6.46666 362.555 7.6 362.222 9C361.955 10.3333 361.789 11.8333 361.722 13.5C361.655 15.1 361.622 16.6 361.622 18V27.6C361.622 30.8667 361.589 35.0333 361.522 40.1C361.522 45.1 361.555 51.0667 361.622 58C361.622 60.2 361.655 62.1667 361.722 63.9C361.789 65.5667 361.955 67 362.222 68.2C362.555 69.3333 363.055 70.2333 363.722 70.9C364.455 71.5 365.489 71.8 366.822 71.8C369.622 71.8 371.789 71.4 373.322 70.6C374.922 69.8 376.089 68.7667 376.822 67.5C377.555 66.1667 377.989 64.7 378.122 63.1C378.255 61.4333 378.289 59.7333 378.222 58V18ZM416.395 0.599996C421.328 0.599996 425.061 2.56666 427.595 6.5C430.128 10.3667 431.395 15.8333 431.395 22.9C431.395 29.9667 430.161 35.5 427.695 39.5C425.295 43.4333 421.528 45.4 416.395 45.4C413.261 45.4 410.595 44.5 408.395 42.7C406.195 40.9 404.528 38.3333 403.395 35C402.328 31.6 401.795 27.5667 401.795 22.9C401.795 15.8333 402.961 10.3667 405.295 6.5C407.628 2.56666 411.328 0.599996 416.395 0.599996ZM416.395 6.79999C413.861 6.79999 411.995 8.16666 410.795 10.9C409.661 13.5667 409.095 17.5667 409.095 22.9C409.095 28.2333 409.661 32.2667 410.795 35C411.995 37.7333 413.861 39.1 416.395 39.1C418.995 39.1 420.928 37.7667 422.195 35.1C423.461 32.3667 424.095 28.3 424.095 22.9C424.095 17.5667 423.461 13.5667 422.195 10.9C420.928 8.16666 418.995 6.79999 416.395 6.79999ZM462.095 1.6L422.495 73H414.795L454.395 1.6H462.095ZM460.095 29.2C463.361 29.2 466.095 30.1 468.295 31.9C470.495 33.6333 472.161 36.1667 473.295 39.5C474.495 42.7667 475.095 46.7667 475.095 51.5C475.095 58.5667 473.861 64.1 471.395 68.1C468.995 72.0333 465.228 74 460.095 74C456.961 74 454.295 73.1 452.095 71.3C449.895 69.5 448.228 66.9333 447.095 63.6C446.028 60.2 445.495 56.1667 445.495 51.5C445.495 44.4333 446.661 38.9667 448.995 35.1C451.328 31.1667 455.028 29.2 460.095 29.2ZM460.095 35.5C457.561 35.5 455.695 36.8333 454.495 39.5C453.361 42.1667 452.795 46.1667 452.795 51.5C452.795 56.9 453.361 60.9667 454.495 63.7C455.695 66.3667 457.561 67.7 460.095 67.7C462.695 67.7 464.628 66.3667 465.895 63.7C467.161 61.0333 467.795 56.9667 467.795 51.5C467.795 46.1667 467.161 42.1667 465.895 39.5C464.628 36.8333 462.695 35.5 460.095 35.5ZM10.1115 109.032H8.35951C8.26351 109.032 8.12751 109.04 7.95151 109.056C7.79151 109.072 7.63151 109.112 7.47151 109.176C7.31151 109.224 7.17551 109.296 7.06351 109.392C6.95151 109.488 6.89551 109.616 6.89551 109.776V116.712H7.37551V117H4.32751V116.712H4.92751V100.488H4.32751V100.2H7.37551V100.488H6.87151L6.89551 109.128C6.89551 109.064 6.94351 109.008 7.03951 108.96C7.13551 108.912 7.26351 108.872 7.42351 108.84C7.58351 108.792 7.75151 108.76 7.92751 108.744C8.10351 108.712 8.27951 108.696 8.45551 108.696H10.1115V100.488H9.51151V100.2H12.5595V100.488H12.0555L12.0795 116.712H12.5595V117H9.51151V116.712H10.1115V109.032ZM37.189 112.632L35.461 101.376L33.853 113.376C33.853 113.136 34.013 112.952 34.333 112.824C34.669 112.696 35.029 112.632 35.413 112.632H37.189ZM37.237 112.872H35.317C35.173 112.872 35.013 112.888 34.837 112.92C34.677 112.936 34.517 112.984 34.357 113.064C34.213 113.128 34.085 113.224 33.973 113.352C33.877 113.464 33.821 113.616 33.805 113.808L33.421 116.76H33.829V117C33.781 117 33.685 117 33.541 117C33.413 117 33.285 117 33.157 117C33.029 117 32.917 117 32.821 117C32.709 117 32.653 116.992 32.653 116.976V116.76H33.037C33.037 116.744 33.069 116.504 33.133 116.04C33.197 115.56 33.277 114.944 33.373 114.192C33.485 113.424 33.605 112.552 33.733 111.576C33.861 110.6 33.989 109.608 34.117 108.6C34.421 106.216 34.765 103.512 35.149 100.488H34.549V100.2H37.141L40.141 116.76H40.621V117H37.189V116.76H37.789L37.237 112.872ZM88.6037 100.488L88.6277 116.712H89.1077V117H86.0597V116.712H86.6597V100.488H86.0597V100.2H94.0997V100.488H93.5957L93.6197 116.712H94.0997V117H91.0517V116.712H91.6517V100.488H88.6037ZM114.922 113.4C114.906 111.48 114.898 109.904 114.898 108.672C114.914 107.44 114.922 106.464 114.922 105.744V103.8C114.922 103.416 114.938 103.016 114.97 102.6C115.002 102.168 115.114 101.776 115.306 101.424C115.498 101.072 115.802 100.784 116.218 100.56C116.65 100.32 117.25 100.2 118.018 100.2C118.802 100.2 119.402 100.304 119.818 100.512C120.25 100.704 120.562 100.968 120.754 101.304C120.962 101.624 121.082 102 121.114 102.432C121.146 102.864 121.154 103.32 121.138 103.8C121.138 105.016 121.138 106.088 121.138 107.016C121.154 107.928 121.162 108.728 121.162 109.416C121.162 110.088 121.162 110.656 121.162 111.12C121.178 111.584 121.186 111.96 121.186 112.248C121.186 112.936 121.194 113.32 121.21 113.4C121.21 114.008 121.194 114.536 121.162 114.984C121.13 115.432 121.01 115.808 120.802 116.112C120.61 116.4 120.298 116.624 119.866 116.784C119.434 116.928 118.818 117 118.018 117C117.25 117 116.65 116.928 116.218 116.784C115.802 116.624 115.498 116.392 115.306 116.088C115.114 115.784 115.002 115.416 114.97 114.984C114.938 114.536 114.922 114.008 114.922 113.4ZM116.77 113.4C116.77 113.928 116.778 114.4 116.794 114.816C116.81 115.216 116.85 115.56 116.914 115.848C116.994 116.12 117.114 116.336 117.274 116.496C117.45 116.64 117.698 116.712 118.018 116.712C118.322 116.712 118.554 116.64 118.714 116.496C118.89 116.336 119.018 116.12 119.098 115.848C119.178 115.56 119.218 115.216 119.218 114.816C119.234 114.4 119.242 113.928 119.242 113.4V111.768C119.242 111.096 119.234 110.136 119.218 108.888C119.218 107.624 119.21 105.928 119.194 103.8C119.21 103.384 119.21 102.984 119.194 102.6C119.178 102.2 119.13 101.848 119.05 101.544C118.986 101.224 118.866 100.968 118.69 100.776C118.53 100.584 118.306 100.488 118.018 100.488C117.698 100.488 117.45 100.6 117.274 100.824C117.114 101.032 116.994 101.304 116.914 101.64C116.85 101.96 116.81 102.32 116.794 102.72C116.778 103.104 116.77 103.464 116.77 103.8V106.104C116.77 106.888 116.762 107.888 116.746 109.104C116.746 110.304 116.754 111.736 116.77 113.4ZM146.931 102.792C147.043 102.12 147.211 101.592 147.435 101.208C147.675 100.824 147.923 100.552 148.179 100.392C148.451 100.232 148.715 100.168 148.971 100.2C149.227 100.232 149.435 100.32 149.595 100.464C149.755 100.592 149.851 100.768 149.883 100.992C149.931 101.2 149.867 101.408 149.691 101.616C149.483 101.84 149.291 101.96 149.115 101.976C148.955 101.976 148.795 101.936 148.635 101.856C148.491 101.776 148.355 101.688 148.227 101.592C148.099 101.48 147.979 101.432 147.867 101.448C147.755 101.464 147.651 101.576 147.555 101.784C147.459 101.992 147.363 102.352 147.267 102.864C147.091 103.68 146.995 104.4 146.979 105.024C146.963 105.648 146.915 106.168 146.835 106.584C146.755 107 146.587 107.312 146.331 107.52C146.091 107.728 145.667 107.832 145.059 107.832C145.795 107.832 146.403 107.92 146.883 108.096C147.379 108.256 147.771 108.512 148.059 108.864C148.363 109.2 148.571 109.632 148.683 110.16C148.811 110.672 148.875 111.272 148.875 111.96C148.891 112.728 148.899 113.408 148.899 114C148.899 114.592 148.923 115.088 148.971 115.488C149.035 115.872 149.139 116.168 149.283 116.376C149.427 116.584 149.659 116.688 149.979 116.688V117C149.211 117 148.619 116.888 148.203 116.664C147.787 116.44 147.483 116.112 147.291 115.68C147.099 115.248 146.987 114.72 146.955 114.096C146.939 113.472 146.931 112.76 146.931 111.96C146.931 111 146.843 110.272 146.667 109.776C146.491 109.264 146.275 108.896 146.019 108.672C145.763 108.448 145.491 108.328 145.203 108.312C144.915 108.28 144.667 108.264 144.459 108.264L144.483 116.712H144.963V117H141.915V116.712H142.515V100.488H141.915V100.2H144.963V100.488H144.459V107.64C145.147 107.64 145.627 107.568 145.899 107.424C146.171 107.264 146.347 107 146.427 106.632C146.523 106.248 146.579 105.752 146.595 105.144C146.627 104.52 146.739 103.736 146.931 102.792ZM172.13 116.688C172.37 116.688 172.578 116.616 172.754 116.472C172.93 116.312 173.082 116.096 173.21 115.824C173.338 115.552 173.458 115.232 173.57 114.864C173.682 114.496 173.802 114.104 173.93 113.688L170.21 100.488H169.73V100.2H172.682V100.488H172.13L174.89 110.256L177.266 100.488H176.81V100.2H178.034V100.488H177.626L174.242 114.048C174.098 114.528 173.954 114.952 173.81 115.32C173.682 115.688 173.538 116 173.378 116.256C173.234 116.496 173.058 116.68 172.85 116.808C172.642 116.92 172.394 116.976 172.106 116.976C171.706 116.976 171.378 116.896 171.122 116.736C170.866 116.56 170.674 116.36 170.546 116.136C170.434 115.912 170.37 115.68 170.354 115.44C170.354 115.184 170.394 114.968 170.474 114.792C170.57 114.616 170.706 114.496 170.882 114.432C171.058 114.368 171.258 114.408 171.482 114.552C171.754 114.712 171.906 114.88 171.938 115.056C171.986 115.216 171.97 115.368 171.89 115.512C171.826 115.656 171.738 115.792 171.626 115.92C171.514 116.048 171.434 116.168 171.386 116.28C171.338 116.376 171.362 116.464 171.458 116.544C171.554 116.608 171.778 116.656 172.13 116.688ZM200.267 100.488L200.291 116.712H200.771V117H197.723V116.712H198.323V100.488H197.723V100.2H205.763V100.488H205.259L205.283 116.712H205.763V117H202.715V116.712H203.315V100.488H200.267ZM231.241 102.792C231.353 102.12 231.521 101.592 231.745 101.208C231.985 100.824 232.233 100.552 232.489 100.392C232.761 100.232 233.025 100.168 233.281 100.2C233.537 100.232 233.745 100.32 233.905 100.464C234.065 100.592 234.161 100.768 234.193 100.992C234.241 101.2 234.177 101.408 234.001 101.616C233.793 101.84 233.601 101.96 233.425 101.976C233.265 101.976 233.105 101.936 232.945 101.856C232.801 101.776 232.665 101.688 232.537 101.592C232.409 101.48 232.289 101.432 232.177 101.448C232.065 101.464 231.961 101.576 231.865 101.784C231.769 101.992 231.673 102.352 231.577 102.864C231.401 103.68 231.305 104.4 231.289 105.024C231.273 105.648 231.225 106.168 231.145 106.584C231.065 107 230.897 107.312 230.641 107.52C230.401 107.728 229.977 107.832 229.369 107.832C230.105 107.832 230.713 107.92 231.193 108.096C231.689 108.256 232.081 108.512 232.369 108.864C232.673 109.2 232.881 109.632 232.993 110.16C233.121 110.672 233.185 111.272 233.185 111.96C233.201 112.728 233.209 113.408 233.209 114C233.209 114.592 233.233 115.088 233.281 115.488C233.345 115.872 233.449 116.168 233.593 116.376C233.737 116.584 233.969 116.688 234.289 116.688V117C233.521 117 232.929 116.888 232.513 116.664C232.097 116.44 231.793 116.112 231.601 115.68C231.409 115.248 231.297 114.72 231.265 114.096C231.249 113.472 231.241 112.76 231.241 111.96C231.241 111 231.153 110.272 230.977 109.776C230.801 109.264 230.585 108.896 230.329 108.672C230.073 108.448 229.801 108.328 229.513 108.312C229.225 108.28 228.977 108.264 228.769 108.264L228.793 116.712H229.273V117H226.225V116.712H226.825V100.488H226.225V100.2H229.273V100.488H228.769V107.64C229.457 107.64 229.937 107.568 230.209 107.424C230.481 107.264 230.657 107 230.737 106.632C230.833 106.248 230.889 105.752 230.905 105.144C230.937 104.52 231.049 103.736 231.241 102.792ZM256.44 116.688C256.68 116.688 256.888 116.616 257.064 116.472C257.24 116.312 257.392 116.096 257.52 115.824C257.648 115.552 257.768 115.232 257.88 114.864C257.992 114.496 258.112 114.104 258.24 113.688L254.52 100.488H254.04V100.2H256.992V100.488H256.44L259.2 110.256L261.576 100.488H261.12V100.2H262.344V100.488H261.936L258.552 114.048C258.408 114.528 258.264 114.952 258.12 115.32C257.992 115.688 257.848 116 257.688 116.256C257.544 116.496 257.368 116.68 257.16 116.808C256.952 116.92 256.704 116.976 256.416 116.976C256.016 116.976 255.688 116.896 255.432 116.736C255.176 116.56 254.984 116.36 254.856 116.136C254.744 115.912 254.68 115.68 254.664 115.44C254.664 115.184 254.704 114.968 254.784 114.792C254.88 114.616 255.016 114.496 255.192 114.432C255.368 114.368 255.568 114.408 255.792 114.552C256.064 114.712 256.216 114.88 256.248 115.056C256.296 115.216 256.28 115.368 256.2 115.512C256.136 115.656 256.048 115.792 255.936 115.92C255.824 116.048 255.744 116.168 255.696 116.28C255.648 116.376 255.672 116.464 255.768 116.544C255.864 116.608 256.088 116.656 256.44 116.688ZM309.541 105.744C310.309 105.744 310.957 105.776 311.485 105.84C312.013 105.888 312.437 106.08 312.757 106.416C313.077 106.736 313.301 107.256 313.429 107.976C313.573 108.68 313.645 109.688 313.645 111C313.645 112.504 313.573 113.664 313.429 114.48C313.301 115.28 313.077 115.872 312.757 116.256C312.453 116.624 312.037 116.84 311.509 116.904C310.981 116.968 310.333 117 309.565 117H306.997V116.64H307.597V100.2H312.565V101.448H312.205V100.56H309.541V105.744ZM309.565 116.616C309.869 116.616 310.157 116.608 310.429 116.592C310.701 116.56 310.941 116.384 311.149 116.064C311.357 115.728 311.517 115.176 311.629 114.408C311.741 113.64 311.797 112.504 311.797 111C311.797 109.72 311.733 108.752 311.605 108.096C311.493 107.424 311.333 106.952 311.125 106.68C310.933 106.392 310.693 106.24 310.405 106.224C310.133 106.192 309.845 106.176 309.541 106.176L309.565 116.616ZM340.395 104.04C340.395 104.04 340.339 104.192 340.227 104.496C340.131 104.784 340.003 105.176 339.843 105.672C339.699 106.152 339.523 106.704 339.315 107.328C339.123 107.952 338.923 108.584 338.715 109.224C338.219 110.744 337.659 112.464 337.035 114.384V116.712H337.515V117H334.467V116.712H335.067V100.488H334.467V100.2H337.515V100.488H337.011L337.035 113.448C337.035 113.448 337.083 113.304 337.179 113.016C337.291 112.712 337.427 112.32 337.587 111.84C337.747 111.344 337.923 110.792 338.115 110.184C338.323 109.56 338.531 108.92 338.739 108.264C339.235 106.744 339.787 105.024 340.395 103.104V100.488H339.795V100.2H342.843V100.488H342.339L342.363 116.712H342.843V117H339.795V116.712H340.395V104.04ZM367.351 100.2L370.351 116.76H370.831V117H367.399V116.76H367.999L365.671 101.376L363.631 116.76H364.039V117C363.991 117 363.895 117 363.751 117C363.623 117 363.495 117 363.367 117C363.239 117 363.127 117 363.031 117C362.919 117 362.863 116.992 362.863 116.976V116.76H363.247C363.247 116.744 363.279 116.504 363.343 116.04C363.407 115.56 363.487 114.944 363.583 114.192C363.695 113.424 363.815 112.552 363.943 111.576C364.071 110.6 364.199 109.608 364.327 108.6C364.631 106.216 364.975 103.512 365.359 100.488H364.759V100.2H367.351ZM397.023 100.2V101.256H396.711V100.488H393.663L393.687 108.336C393.687 108.176 393.751 108.056 393.879 107.976C394.007 107.88 394.239 107.832 394.575 107.832H395.727V107.328H396.039V108.6H395.727V108.144H394.479C394.191 108.144 393.983 108.224 393.855 108.384C393.743 108.544 393.687 108.784 393.687 109.104V116.712H396.711V115.944H397.023V117H391.119V116.712H391.719V100.488H391.119V100.2H397.023ZM424.305 100.2V101.376H423.993V100.488H421.617L421.641 116.712H422.121V117H419.073V116.712H419.673V100.488H417.417V101.376H417.105V100.2H424.305ZM444.686 113.4C444.67 111.48 444.662 109.904 444.662 108.672C444.678 107.44 444.686 106.464 444.686 105.744V103.8C444.686 103.416 444.702 103.016 444.734 102.6C444.766 102.168 444.878 101.776 445.07 101.424C445.262 101.072 445.566 100.784 445.982 100.56C446.414 100.32 447.014 100.2 447.782 100.2C448.566 100.2 449.166 100.304 449.582 100.512C450.014 100.704 450.326 100.968 450.518 101.304C450.726 101.624 450.846 102 450.878 102.432C450.91 102.864 450.918 103.32 450.902 103.8C450.902 105.016 450.902 106.088 450.902 107.016C450.918 107.928 450.926 108.728 450.926 109.416C450.926 110.088 450.926 110.656 450.926 111.12C450.942 111.584 450.95 111.96 450.95 112.248C450.95 112.936 450.958 113.32 450.974 113.4C450.974 114.008 450.958 114.536 450.926 114.984C450.894 115.432 450.774 115.808 450.566 116.112C450.374 116.4 450.062 116.624 449.63 116.784C449.198 116.928 448.582 117 447.782 117C447.014 117 446.414 116.928 445.982 116.784C445.566 116.624 445.262 116.392 445.07 116.088C444.878 115.784 444.766 115.416 444.734 114.984C444.702 114.536 444.686 114.008 444.686 113.4ZM446.534 113.4C446.534 113.928 446.542 114.4 446.558 114.816C446.574 115.216 446.614 115.56 446.678 115.848C446.758 116.12 446.878 116.336 447.038 116.496C447.214 116.64 447.462 116.712 447.782 116.712C448.086 116.712 448.318 116.64 448.478 116.496C448.654 116.336 448.782 116.12 448.862 115.848C448.942 115.56 448.982 115.216 448.982 114.816C448.998 114.4 449.006 113.928 449.006 113.4V111.768C449.006 111.096 448.998 110.136 448.982 108.888C448.982 107.624 448.974 105.928 448.958 103.8C448.974 103.384 448.974 102.984 448.958 102.6C448.942 102.2 448.894 101.848 448.814 101.544C448.75 101.224 448.63 100.968 448.454 100.776C448.294 100.584 448.07 100.488 447.782 100.488C447.462 100.488 447.214 100.6 447.038 100.824C446.878 101.032 446.758 101.304 446.678 101.64C446.614 101.96 446.574 102.32 446.558 102.72C446.542 103.104 446.534 103.464 446.534 103.8V106.104C446.534 106.888 446.526 107.888 446.51 109.104C446.51 110.304 446.518 111.736 446.534 113.4ZM474.248 116.664C474.616 116.664 474.936 116.64 475.208 116.592C475.496 116.528 475.728 116.32 475.904 115.968C476.096 115.616 476.24 115.056 476.336 114.288C476.432 113.52 476.48 112.424 476.48 111C476.48 109.928 476.464 109.064 476.432 108.408C476.4 107.736 476.328 107.216 476.216 106.848C476.104 106.464 475.952 106.208 475.76 106.08C475.568 105.936 475.32 105.864 475.016 105.864C474.728 105.864 474.52 105.944 474.392 106.104C474.28 106.264 474.224 106.504 474.224 106.824L474.248 116.664ZM471.68 100.2H474.224C474.992 100.2 475.6 100.28 476.048 100.44C476.512 100.584 476.864 100.792 477.104 101.064C477.344 101.32 477.496 101.616 477.56 101.952C477.64 102.288 477.68 102.632 477.68 102.984C477.68 103.4 477.672 103.776 477.656 104.112C477.64 104.432 477.576 104.712 477.464 104.952C477.352 105.176 477.184 105.352 476.96 105.48C476.736 105.608 476.416 105.672 476 105.672C476.576 105.672 477.024 105.808 477.344 106.08C477.664 106.336 477.896 106.696 478.04 107.16C478.184 107.624 478.264 108.184 478.28 108.84C478.312 109.496 478.328 110.216 478.328 111C478.328 112.488 478.256 113.64 478.112 114.456C477.984 115.256 477.76 115.848 477.44 116.232C477.136 116.616 476.72 116.84 476.192 116.904C475.68 116.968 475.032 117 474.248 117H471.68V116.664H472.28V100.536H471.68V100.2ZM474.224 105.984C474.224 105.856 474.288 105.744 474.416 105.648C474.544 105.552 474.776 105.504 475.112 105.504C475.4 105.504 475.624 105.488 475.784 105.456C475.944 105.424 476.064 105.344 476.144 105.216C476.224 105.072 476.272 104.864 476.288 104.592C476.304 104.32 476.312 103.944 476.312 103.464C476.312 102.728 476.264 102.168 476.168 101.784C476.088 101.384 475.96 101.096 475.784 100.92C475.608 100.728 475.392 100.616 475.136 100.584C474.88 100.552 474.576 100.536 474.224 100.536V105.984ZM15.2241 146.6C15.2241 146.6 15.2241 147.02 15.2241 147.86C15.2241 148.672 15.2241 149.75 15.2241 151.094C15.2241 152.438 15.2241 153.978 15.2241 155.714C15.2241 157.422 15.2241 159.172 15.2241 160.964C15.2521 162.756 15.2661 164.52 15.2661 166.256C15.2661 167.964 15.2661 169.504 15.2661 170.876C15.2661 172.22 15.2661 173.326 15.2661 174.194C15.2661 175.034 15.2661 175.468 15.2661 175.496H17.6181V177.764H17.1141V176H1.95206V177.764H1.44806V175.496H3.46406C4.13606 174.264 4.73806 172.78 5.27006 171.044C5.74606 169.588 6.16606 167.796 6.53006 165.668C6.92206 163.512 7.11806 161.034 7.11806 158.234V146.6H15.2241ZM7.70606 147.104V158.192C7.70606 160.992 7.51006 163.47 7.11806 165.626C6.75406 167.754 6.34806 169.56 5.90006 171.044C5.36806 172.78 4.76606 174.264 4.09406 175.496H11.8221V147.104H7.70606ZM25.1925 169.7C25.1645 166.34 25.1505 163.582 25.1505 161.426C25.1785 159.27 25.1925 157.562 25.1925 156.302V152.9C25.1925 152.228 25.2205 151.528 25.2765 150.8C25.3325 150.044 25.5285 149.358 25.8645 148.742C26.2005 148.126 26.7325 147.622 27.4605 147.23C28.2165 146.81 29.2665 146.6 30.6105 146.6C31.9825 146.6 33.0325 146.782 33.7605 147.146C34.5165 147.482 35.0625 147.944 35.3985 148.532C35.7625 149.092 35.9725 149.75 36.0285 150.506C36.0845 151.262 36.0985 152.06 36.0705 152.9C36.0705 155.028 36.0705 156.904 36.0705 158.528C36.0985 160.124 36.1125 161.524 36.1125 162.728C36.1125 163.904 36.1125 164.898 36.1125 165.71C36.1405 166.522 36.1545 167.18 36.1545 167.684C36.1545 168.888 36.1685 169.56 36.1965 169.7C36.1965 170.764 36.1685 171.688 36.1125 172.472C36.0565 173.256 35.8465 173.914 35.4825 174.446C35.1465 174.95 34.6005 175.342 33.8445 175.622C33.0885 175.874 32.0105 176 30.6105 176C29.2665 176 28.2165 175.874 27.4605 175.622C26.7325 175.342 26.2005 174.936 25.8645 174.404C25.5285 173.872 25.3325 173.228 25.2765 172.472C25.2205 171.688 25.1925 170.764 25.1925 169.7ZM28.4265 169.7C28.4265 170.624 28.4405 171.45 28.4685 172.178C28.4965 172.878 28.5665 173.48 28.6785 173.984C28.8185 174.46 29.0285 174.838 29.3085 175.118C29.6165 175.37 30.0505 175.496 30.6105 175.496C31.1425 175.496 31.5485 175.37 31.8285 175.118C32.1365 174.838 32.3605 174.46 32.5005 173.984C32.6405 173.48 32.7105 172.878 32.7105 172.178C32.7385 171.45 32.7525 170.624 32.7525 169.7V166.844C32.7525 165.668 32.7385 163.988 32.7105 161.804C32.7105 159.592 32.6965 156.624 32.6685 152.9C32.6965 152.172 32.6965 151.472 32.6685 150.8C32.6405 150.1 32.5565 149.484 32.4165 148.952C32.3045 148.392 32.0945 147.944 31.7865 147.608C31.5065 147.272 31.1145 147.104 30.6105 147.104C30.0505 147.104 29.6165 147.3 29.3085 147.692C29.0285 148.056 28.8185 148.532 28.6785 149.12C28.5665 149.68 28.4965 150.31 28.4685 151.01C28.4405 151.682 28.4265 152.312 28.4265 152.9V156.932C28.4265 158.304 28.4125 160.054 28.3845 162.182C28.3845 164.282 28.3985 166.788 28.4265 169.7ZM65.6319 175.958C65.2399 176.042 64.8199 176.014 64.3719 175.874C63.9519 175.734 63.5459 175.51 63.1539 175.202C62.6779 174.838 62.1879 174.6 61.6839 174.488C61.2639 174.404 60.7879 174.46 60.2559 174.656C59.7519 174.824 59.2619 175.272 58.7859 176C58.3099 175.972 58.1139 175.356 58.1979 174.152C58.3099 172.948 58.6319 171.31 59.1639 169.238C59.6959 167.166 60.4099 164.73 61.3059 161.93C62.2299 159.13 63.2659 156.12 64.4139 152.9C64.8339 151.752 65.0719 150.8 65.1279 150.044C65.2119 149.288 65.1419 148.686 64.9179 148.238C64.6939 147.79 64.3439 147.482 63.8679 147.314C63.4199 147.118 62.8739 147.02 62.2299 147.02C61.3059 147.132 60.6759 147.258 60.3399 147.398C60.0319 147.538 59.8779 147.706 59.8779 147.902C59.8779 148.098 59.9899 148.308 60.2139 148.532C60.4379 148.728 60.6199 148.952 60.7599 149.204C60.9279 149.456 60.9979 149.722 60.9699 150.002C60.9419 150.282 60.6899 150.562 60.2139 150.842C59.8219 151.094 59.4719 151.164 59.1639 151.052C58.8559 150.94 58.6179 150.73 58.4499 150.422C58.3099 150.086 58.2539 149.708 58.2819 149.288C58.3099 148.84 58.4639 148.42 58.7439 148.028C59.0239 147.636 59.4439 147.3 60.0039 147.02C60.5639 146.74 61.3059 146.6 62.2299 146.6C63.5739 146.6 64.6379 146.922 65.4219 147.566C66.2059 148.182 66.7659 148.952 67.1019 149.876C67.4379 150.8 67.5779 151.78 67.5219 152.816C67.4939 153.852 67.3259 154.762 67.0179 155.546C66.0099 158.234 64.9879 160.628 63.9519 162.728C62.9439 164.8 62.0339 166.634 61.2219 168.23C60.4099 169.826 59.7659 171.212 59.2899 172.388C58.8419 173.564 58.6739 174.6 58.7859 175.496C59.2059 174.824 59.6539 174.404 60.1299 174.236C60.6339 174.04 61.1099 173.97 61.5579 174.026C62.0619 174.11 62.5659 174.306 63.0699 174.614C63.5179 174.922 63.9519 175.174 64.3719 175.37C64.8199 175.538 65.2399 175.594 65.6319 175.538C66.1359 175.426 66.4439 175.3 66.5559 175.16C66.6679 174.992 66.6679 174.824 66.5559 174.656C66.4719 174.46 66.3319 174.264 66.1359 174.068C65.9399 173.872 65.7859 173.662 65.6739 173.438C65.5619 173.186 65.5339 172.948 65.5899 172.724C65.6459 172.472 65.8839 172.206 66.3039 171.926C66.8359 171.59 67.2699 171.576 67.6059 171.884C67.9699 172.164 68.1519 172.57 68.1519 173.102C68.1799 173.634 67.9979 174.194 67.6059 174.782C67.2139 175.342 66.5559 175.734 65.6319 175.958ZM75.978 146.6C76.734 146.6 77.616 146.614 78.624 146.642C79.66 146.642 80.64 146.6 81.564 146.516C82.516 146.432 83.314 146.278 83.958 146.054C84.602 145.802 84.924 145.41 84.924 144.878H85.218C85.218 145.886 84.896 146.656 84.252 147.188C83.608 147.72 82.824 148.112 81.9 148.364C81.004 148.588 80.052 148.728 79.044 148.784C78.064 148.812 77.21 148.826 76.482 148.826V157.856C76.65 157.66 76.804 157.492 76.944 157.352C77.112 157.184 77.308 157.058 77.532 156.974C77.784 156.862 78.092 156.778 78.456 156.722C78.848 156.666 79.352 156.638 79.968 156.638C81.34 156.638 82.39 156.806 83.118 157.142C83.874 157.478 84.434 157.94 84.798 158.528C85.162 159.116 85.372 159.788 85.428 160.544C85.512 161.3 85.554 162.098 85.554 162.938V169.7C85.554 170.736 85.526 171.646 85.47 172.43C85.414 173.214 85.204 173.872 84.84 174.404C84.476 174.936 83.916 175.342 83.16 175.622C82.404 175.874 81.326 176 79.926 176C79.002 176 78.26 175.86 77.7 175.58C77.14 175.3 76.72 174.964 76.44 174.572C76.16 174.18 76.006 173.774 75.978 173.354C75.95 172.906 76.006 172.528 76.146 172.22C76.314 171.884 76.552 171.66 76.86 171.548C77.168 171.436 77.518 171.506 77.91 171.758C78.386 172.066 78.638 172.36 78.666 172.64C78.722 172.892 78.666 173.144 78.498 173.396C78.358 173.648 78.176 173.886 77.952 174.11C77.756 174.334 77.644 174.544 77.616 174.74C77.616 174.908 77.77 175.062 78.078 175.202C78.414 175.314 79.03 175.412 79.926 175.496C80.458 175.524 80.864 175.412 81.144 175.16C81.452 174.88 81.676 174.488 81.816 173.984C81.984 173.48 82.068 172.878 82.068 172.178C82.096 171.45 82.11 170.624 82.11 169.7V162.938C82.11 162.182 82.096 161.454 82.068 160.754C82.04 160.054 81.956 159.438 81.816 158.906C81.676 158.346 81.452 157.898 81.144 157.562C80.864 157.226 80.472 157.058 79.968 157.058C79.044 157.086 78.288 157.226 77.7 157.478C77.14 157.702 76.566 158.248 75.978 159.116V146.6ZM93.308 174.572C93.308 174.18 93.434 173.83 93.686 173.522C93.966 173.214 94.302 173.06 94.694 173.06C95.086 173.06 95.422 173.214 95.702 173.522C95.982 173.83 96.122 174.18 96.122 174.572C96.122 174.964 95.982 175.3 95.702 175.58C95.422 175.832 95.086 175.958 94.694 175.958C94.302 175.958 93.966 175.832 93.686 175.58C93.434 175.3 93.308 174.964 93.308 174.572ZM113.04 169.7C113.04 170.624 112.998 171.478 112.914 172.262C112.83 173.018 112.606 173.676 112.242 174.236C111.906 174.796 111.36 175.23 110.604 175.538C109.876 175.846 108.868 176 107.58 176C106.236 176 105.172 175.874 104.388 175.622C103.632 175.342 103.058 174.936 102.666 174.404C102.302 173.872 102.064 173.228 101.952 172.472C101.868 171.688 101.826 170.764 101.826 169.7C101.798 166.34 101.784 163.582 101.784 161.426C101.812 159.27 101.826 157.562 101.826 156.302V152.9C101.826 152.228 101.868 151.528 101.952 150.8C102.064 150.044 102.302 149.358 102.666 148.742C103.058 148.126 103.632 147.622 104.388 147.23C105.172 146.81 106.236 146.6 107.58 146.6C108.868 146.6 109.876 146.754 110.604 147.062C111.332 147.37 111.878 147.804 112.242 148.364C112.606 148.924 112.83 149.596 112.914 150.38C112.998 151.136 113.04 151.976 113.04 152.9V169.7ZM112.368 152.9C112.396 152.172 112.368 151.472 112.284 150.8C112.228 150.1 112.046 149.484 111.738 148.952C111.43 148.392 110.94 147.944 110.268 147.608C109.624 147.272 108.728 147.104 107.58 147.104C107.02 147.104 106.586 147.3 106.278 147.692C105.998 148.056 105.788 148.532 105.648 149.12C105.536 149.68 105.466 150.31 105.438 151.01C105.41 151.682 105.396 152.312 105.396 152.9V156.932C105.396 158.304 105.382 160.054 105.354 162.182C105.354 164.282 105.368 166.788 105.396 169.7C105.396 170.624 105.41 171.45 105.438 172.178C105.466 172.878 105.536 173.48 105.648 173.984C105.788 174.46 105.998 174.838 106.278 175.118C106.586 175.37 107.02 175.496 107.58 175.496C108.756 175.496 109.666 175.328 110.31 174.992C110.982 174.656 111.472 174.222 111.78 173.69C112.088 173.13 112.27 172.514 112.326 171.842C112.382 171.142 112.396 170.428 112.368 169.7V152.9ZM128.107 163.778C127.883 163.974 127.561 164.114 127.141 164.198C126.721 164.254 126.329 164.282 125.965 164.282C124.593 164.282 123.529 164.114 122.773 163.778C122.017 163.442 121.457 162.98 121.093 162.392C120.757 161.804 120.547 161.132 120.463 160.376C120.407 159.62 120.379 158.822 120.379 157.982V152.942C120.379 151.906 120.407 150.996 120.463 150.212C120.519 149.428 120.715 148.77 121.051 148.238C121.387 147.706 121.933 147.314 122.689 147.062C123.445 146.782 124.523 146.642 125.923 146.642C127.267 146.642 128.303 146.782 129.031 147.062C129.787 147.314 130.333 147.706 130.669 148.238C131.005 148.77 131.201 149.428 131.257 150.212C131.313 150.996 131.341 151.906 131.341 152.942V166.34V169.742C131.341 170.414 131.313 171.128 131.257 171.884C131.201 172.612 131.005 173.284 130.669 173.9C130.333 174.516 129.787 175.034 129.031 175.454C128.303 175.846 127.267 176.042 125.923 176.042C124.719 176.042 123.753 175.902 123.025 175.622C122.297 175.342 121.751 175.006 121.387 174.614C121.051 174.222 120.869 173.816 120.841 173.396C120.813 172.948 120.883 172.57 121.051 172.262C121.247 171.954 121.513 171.744 121.849 171.632C122.213 171.492 122.591 171.548 122.983 171.8C123.431 172.08 123.683 172.374 123.739 172.682C123.823 172.962 123.823 173.242 123.739 173.522C123.655 173.774 123.543 174.026 123.403 174.278C123.291 174.53 123.263 174.754 123.319 174.95C123.375 175.146 123.585 175.314 123.949 175.454C124.341 175.566 124.999 175.622 125.923 175.622C126.455 175.622 126.875 175.426 127.183 175.034C127.491 174.642 127.701 174.152 127.813 173.564C127.953 172.976 128.037 172.346 128.065 171.674C128.093 170.974 128.107 170.33 128.107 169.742V163.778ZM128.107 163.19V162.434V152.942C128.107 152.018 128.093 151.206 128.065 150.506C128.037 149.778 127.953 149.176 127.813 148.7C127.701 148.196 127.491 147.818 127.183 147.566C126.875 147.286 126.455 147.146 125.923 147.146C125.111 147.118 124.551 147.622 124.243 148.658C123.935 149.666 123.795 151.094 123.823 152.942V157.982C123.823 158.738 123.837 159.466 123.865 160.166C123.893 160.866 123.977 161.496 124.117 162.056C124.257 162.588 124.467 163.022 124.747 163.358C125.055 163.694 125.461 163.862 125.965 163.862C126.273 163.862 126.665 163.82 127.141 163.736C127.617 163.652 127.939 163.47 128.107 163.19ZM157.441 147.104L157.483 175.496H158.323V176H152.989V175.496H154.039V147.104H152.989V146.6H167.059V147.104H166.177L166.219 175.496H167.059V176H161.725V175.496H162.775V147.104H157.441ZM174.517 169.7C174.489 166.34 174.475 163.582 174.475 161.426C174.503 159.27 174.517 157.562 174.517 156.302V152.9C174.517 152.228 174.545 151.528 174.601 150.8C174.657 150.044 174.853 149.358 175.189 148.742C175.525 148.126 176.057 147.622 176.785 147.23C177.541 146.81 178.591 146.6 179.935 146.6C181.307 146.6 182.357 146.782 183.085 147.146C183.841 147.482 184.387 147.944 184.723 148.532C185.087 149.092 185.297 149.75 185.353 150.506C185.409 151.262 185.423 152.06 185.395 152.9C185.395 155.028 185.395 156.904 185.395 158.528C185.423 160.124 185.437 161.524 185.437 162.728C185.437 163.904 185.437 164.898 185.437 165.71C185.465 166.522 185.479 167.18 185.479 167.684C185.479 168.888 185.493 169.56 185.521 169.7C185.521 170.764 185.493 171.688 185.437 172.472C185.381 173.256 185.171 173.914 184.807 174.446C184.471 174.95 183.925 175.342 183.169 175.622C182.413 175.874 181.335 176 179.935 176C178.591 176 177.541 175.874 176.785 175.622C176.057 175.342 175.525 174.936 175.189 174.404C174.853 173.872 174.657 173.228 174.601 172.472C174.545 171.688 174.517 170.764 174.517 169.7ZM177.751 169.7C177.751 170.624 177.765 171.45 177.793 172.178C177.821 172.878 177.891 173.48 178.003 173.984C178.143 174.46 178.353 174.838 178.633 175.118C178.941 175.37 179.375 175.496 179.935 175.496C180.467 175.496 180.873 175.37 181.153 175.118C181.461 174.838 181.685 174.46 181.825 173.984C181.965 173.48 182.035 172.878 182.035 172.178C182.063 171.45 182.077 170.624 182.077 169.7V166.844C182.077 165.668 182.063 163.988 182.035 161.804C182.035 159.592 182.021 156.624 181.993 152.9C182.021 152.172 182.021 151.472 181.993 150.8C181.965 150.1 181.881 149.484 181.741 148.952C181.629 148.392 181.419 147.944 181.111 147.608C180.831 147.272 180.439 147.104 179.935 147.104C179.375 147.104 178.941 147.3 178.633 147.692C178.353 148.056 178.143 148.532 178.003 149.12C177.891 149.68 177.821 150.31 177.793 151.01C177.765 151.682 177.751 152.312 177.751 152.9V156.932C177.751 158.304 177.737 160.054 177.709 162.182C177.709 164.282 177.723 166.788 177.751 169.7ZM211.933 147.104L211.975 175.496H212.815V176H207.481V175.496H208.531V147.104H207.481V146.6H221.551V147.104H220.669L220.711 175.496H221.551V176H216.217V175.496H217.267V147.104H211.933ZM232.831 147.104L232.873 166.508C232.873 166.284 232.985 166.088 233.209 165.92C233.433 165.752 233.839 165.668 234.427 165.668C234.959 165.668 235.379 165.584 235.687 165.416C235.995 165.248 236.219 164.842 236.359 164.198C236.527 163.526 236.625 162.532 236.653 161.216C236.709 159.9 236.737 158.094 236.737 155.798C236.737 153.53 236.639 151.808 236.443 150.632C236.247 149.456 235.967 148.602 235.603 148.07C235.267 147.538 234.847 147.244 234.343 147.188C233.867 147.132 233.363 147.104 232.831 147.104ZM232.831 146.6C234.175 146.6 235.309 146.656 236.233 146.768C237.157 146.852 237.899 147.188 238.459 147.776C239.019 148.336 239.411 149.246 239.635 150.506C239.859 151.738 239.971 153.502 239.971 155.798C239.971 158.346 239.915 160.32 239.803 161.72C239.719 163.12 239.495 164.156 239.131 164.828C238.767 165.5 238.193 165.906 237.409 166.046C236.653 166.186 235.603 166.256 234.259 166.256C233.755 166.256 233.391 166.396 233.167 166.676C232.971 166.956 232.873 167.376 232.873 167.936V175.496H233.713V176H228.379V175.496H229.429V147.104H228.379V146.6H232.831ZM247.118 169.7C247.09 166.34 247.076 163.582 247.076 161.426C247.104 159.27 247.118 157.562 247.118 156.302V152.9C247.118 152.228 247.146 151.528 247.202 150.8C247.258 150.044 247.454 149.358 247.79 148.742C248.126 148.126 248.658 147.622 249.386 147.23C250.142 146.81 251.192 146.6 252.536 146.6C253.908 146.6 254.958 146.782 255.686 147.146C256.442 147.482 256.988 147.944 257.324 148.532C257.688 149.092 257.898 149.75 257.954 150.506C258.01 151.262 258.024 152.06 257.996 152.9C257.996 155.028 257.996 156.904 257.996 158.528C258.024 160.124 258.038 161.524 258.038 162.728C258.038 163.904 258.038 164.898 258.038 165.71C258.066 166.522 258.08 167.18 258.08 167.684C258.08 168.888 258.094 169.56 258.122 169.7C258.122 170.764 258.094 171.688 258.038 172.472C257.982 173.256 257.772 173.914 257.408 174.446C257.072 174.95 256.526 175.342 255.77 175.622C255.014 175.874 253.936 176 252.536 176C251.192 176 250.142 175.874 249.386 175.622C248.658 175.342 248.126 174.936 247.79 174.404C247.454 173.872 247.258 173.228 247.202 172.472C247.146 171.688 247.118 170.764 247.118 169.7ZM250.352 169.7C250.352 170.624 250.366 171.45 250.394 172.178C250.422 172.878 250.492 173.48 250.604 173.984C250.744 174.46 250.954 174.838 251.234 175.118C251.542 175.37 251.976 175.496 252.536 175.496C253.068 175.496 253.474 175.37 253.754 175.118C254.062 174.838 254.286 174.46 254.426 173.984C254.566 173.48 254.636 172.878 254.636 172.178C254.664 171.45 254.678 170.624 254.678 169.7V166.844C254.678 165.668 254.664 163.988 254.636 161.804C254.636 159.592 254.622 156.624 254.594 152.9C254.622 152.172 254.622 151.472 254.594 150.8C254.566 150.1 254.482 149.484 254.342 148.952C254.23 148.392 254.02 147.944 253.712 147.608C253.432 147.272 253.04 147.104 252.536 147.104C251.976 147.104 251.542 147.3 251.234 147.692C250.954 148.056 250.744 148.532 250.604 149.12C250.492 149.68 250.422 150.31 250.394 151.01C250.366 151.682 250.352 152.312 250.352 152.9V156.932C250.352 158.304 250.338 160.054 250.31 162.182C250.31 164.282 250.324 166.788 250.352 169.7ZM272.475 168.734L267.015 150.296L267.141 175.496H268.107V176H265.377V175.496H266.427V147.104H265.377V146.6H269.829L274.113 161.636L278.985 146.6H282.639V147.104H281.589L281.631 175.496H282.639V176H276.969V175.496H278.187V151.094L272.475 168.734ZM290.063 169.7C290.035 166.34 290.021 163.582 290.021 161.426C290.049 159.27 290.063 157.562 290.063 156.302V152.9C290.063 152.228 290.091 151.528 290.147 150.8C290.203 150.044 290.399 149.358 290.735 148.742C291.071 148.126 291.603 147.622 292.331 147.23C293.087 146.81 294.137 146.6 295.481 146.6C296.853 146.6 297.903 146.782 298.631 147.146C299.387 147.482 299.933 147.944 300.269 148.532C300.633 149.092 300.843 149.75 300.899 150.506C300.955 151.262 300.969 152.06 300.941 152.9C300.941 155.028 300.941 156.904 300.941 158.528C300.969 160.124 300.983 161.524 300.983 162.728C300.983 163.904 300.983 164.898 300.983 165.71C301.011 166.522 301.025 167.18 301.025 167.684C301.025 168.888 301.039 169.56 301.067 169.7C301.067 170.764 301.039 171.688 300.983 172.472C300.927 173.256 300.717 173.914 300.353 174.446C300.017 174.95 299.471 175.342 298.715 175.622C297.959 175.874 296.881 176 295.481 176C294.137 176 293.087 175.874 292.331 175.622C291.603 175.342 291.071 174.936 290.735 174.404C290.399 173.872 290.203 173.228 290.147 172.472C290.091 171.688 290.063 170.764 290.063 169.7ZM293.297 169.7C293.297 170.624 293.311 171.45 293.339 172.178C293.367 172.878 293.437 173.48 293.549 173.984C293.689 174.46 293.899 174.838 294.179 175.118C294.487 175.37 294.921 175.496 295.481 175.496C296.013 175.496 296.419 175.37 296.699 175.118C297.007 174.838 297.231 174.46 297.371 173.984C297.511 173.48 297.581 172.878 297.581 172.178C297.609 171.45 297.623 170.624 297.623 169.7V166.844C297.623 165.668 297.609 163.988 297.581 161.804C297.581 159.592 297.567 156.624 297.539 152.9C297.567 152.172 297.567 151.472 297.539 150.8C297.511 150.1 297.427 149.484 297.287 148.952C297.175 148.392 296.965 147.944 296.657 147.608C296.377 147.272 295.985 147.104 295.481 147.104C294.921 147.104 294.487 147.3 294.179 147.692C293.899 148.056 293.689 148.532 293.549 149.12C293.437 149.68 293.367 150.31 293.339 151.01C293.311 151.682 293.297 152.312 293.297 152.9V156.932C293.297 158.304 293.283 160.054 293.255 162.182C293.255 164.282 293.269 166.788 293.297 169.7ZM317.1 151.136C317.296 149.96 317.59 149.036 317.982 148.364C318.402 147.692 318.836 147.216 319.284 146.936C319.76 146.656 320.222 146.544 320.67 146.6C321.118 146.656 321.482 146.81 321.762 147.062C322.042 147.286 322.21 147.594 322.266 147.986C322.35 148.35 322.238 148.714 321.93 149.078C321.566 149.47 321.23 149.68 320.922 149.708C320.642 149.708 320.362 149.638 320.082 149.498C319.83 149.358 319.592 149.204 319.368 149.036C319.144 148.84 318.934 148.756 318.738 148.784C318.542 148.812 318.36 149.008 318.192 149.372C318.024 149.736 317.856 150.366 317.688 151.262C317.38 152.69 317.212 153.95 317.184 155.042C317.156 156.134 317.072 157.044 316.932 157.772C316.792 158.5 316.498 159.046 316.05 159.41C315.63 159.774 314.888 159.956 313.824 159.956C315.112 159.956 316.176 160.11 317.016 160.418C317.884 160.698 318.57 161.146 319.074 161.762C319.606 162.35 319.97 163.106 320.166 164.03C320.39 164.926 320.502 165.976 320.502 167.18C320.53 168.524 320.544 169.714 320.544 170.75C320.544 171.786 320.586 172.654 320.67 173.354C320.782 174.026 320.964 174.544 321.216 174.908C321.468 175.272 321.874 175.454 322.434 175.454V176C321.09 176 320.054 175.804 319.326 175.412C318.598 175.02 318.066 174.446 317.73 173.69C317.394 172.934 317.198 172.01 317.142 170.918C317.114 169.826 317.1 168.58 317.1 167.18C317.1 165.5 316.946 164.226 316.638 163.358C316.33 162.462 315.952 161.818 315.504 161.426C315.056 161.034 314.58 160.824 314.076 160.796C313.572 160.74 313.138 160.712 312.774 160.712L312.816 175.496H313.656V176H308.322V175.496H309.372V147.104H308.322V146.6H313.656V147.104H312.774V159.62C313.978 159.62 314.818 159.494 315.294 159.242C315.77 158.962 316.078 158.5 316.218 157.856C316.386 157.184 316.484 156.316 316.512 155.252C316.568 154.16 316.764 152.788 317.1 151.136ZM329.194 169.7C329.166 166.34 329.152 163.582 329.152 161.426C329.18 159.27 329.194 157.562 329.194 156.302V152.9C329.194 152.228 329.222 151.528 329.278 150.8C329.334 150.044 329.53 149.358 329.866 148.742C330.202 148.126 330.734 147.622 331.462 147.23C332.218 146.81 333.268 146.6 334.612 146.6C335.984 146.6 337.034 146.782 337.762 147.146C338.518 147.482 339.064 147.944 339.4 148.532C339.764 149.092 339.974 149.75 340.03 150.506C340.086 151.262 340.1 152.06 340.072 152.9C340.072 155.028 340.072 156.904 340.072 158.528C340.1 160.124 340.114 161.524 340.114 162.728C340.114 163.904 340.114 164.898 340.114 165.71C340.142 166.522 340.156 167.18 340.156 167.684C340.156 168.888 340.17 169.56 340.198 169.7C340.198 170.764 340.17 171.688 340.114 172.472C340.058 173.256 339.848 173.914 339.484 174.446C339.148 174.95 338.602 175.342 337.846 175.622C337.09 175.874 336.012 176 334.612 176C333.268 176 332.218 175.874 331.462 175.622C330.734 175.342 330.202 174.936 329.866 174.404C329.53 173.872 329.334 173.228 329.278 172.472C329.222 171.688 329.194 170.764 329.194 169.7ZM332.428 169.7C332.428 170.624 332.442 171.45 332.47 172.178C332.498 172.878 332.568 173.48 332.68 173.984C332.82 174.46 333.03 174.838 333.31 175.118C333.618 175.37 334.052 175.496 334.612 175.496C335.144 175.496 335.55 175.37 335.83 175.118C336.138 174.838 336.362 174.46 336.502 173.984C336.642 173.48 336.712 172.878 336.712 172.178C336.74 171.45 336.754 170.624 336.754 169.7V166.844C336.754 165.668 336.74 163.988 336.712 161.804C336.712 159.592 336.698 156.624 336.67 152.9C336.698 152.172 336.698 151.472 336.67 150.8C336.642 150.1 336.558 149.484 336.418 148.952C336.306 148.392 336.096 147.944 335.788 147.608C335.508 147.272 335.116 147.104 334.612 147.104C334.052 147.104 333.618 147.3 333.31 147.692C333.03 148.056 332.82 148.532 332.68 149.12C332.568 149.68 332.498 150.31 332.47 151.01C332.442 151.682 332.428 152.312 332.428 152.9V156.932C332.428 158.304 332.414 160.054 332.386 162.182C332.386 164.282 332.4 166.788 332.428 169.7ZM359.422 146.6C359.422 146.6 359.422 147.02 359.422 147.86C359.422 148.672 359.422 149.75 359.422 151.094C359.422 152.438 359.422 153.978 359.422 155.714C359.422 157.422 359.422 159.172 359.422 160.964C359.45 162.756 359.464 164.52 359.464 166.256C359.464 167.964 359.464 169.504 359.464 170.876C359.464 172.22 359.464 173.326 359.464 174.194C359.464 175.034 359.464 175.468 359.464 175.496H361.816V177.764H361.312V176H346.15V177.764H345.646V175.496H347.662C348.334 174.264 348.936 172.78 349.468 171.044C349.944 169.588 350.364 167.796 350.728 165.668C351.12 163.512 351.316 161.034 351.316 158.234V146.6H359.422ZM351.904 147.104V158.192C351.904 160.992 351.708 163.47 351.316 165.626C350.952 167.754 350.546 169.56 350.098 171.044C349.566 172.78 348.964 174.264 348.292 175.496H356.02V147.104H351.904ZM372.415 175.454C372.835 175.454 373.199 175.328 373.507 175.076C373.815 174.796 374.081 174.418 374.305 173.942C374.529 173.466 374.739 172.906 374.935 172.262C375.131 171.618 375.341 170.932 375.565 170.204L369.055 147.104H368.215V146.6H373.381V147.104H372.415L377.245 164.198L381.403 147.104H380.605V146.6H382.747V147.104H382.033L376.111 170.834C375.859 171.674 375.607 172.416 375.355 173.06C375.131 173.704 374.879 174.25 374.599 174.698C374.347 175.118 374.039 175.44 373.675 175.664C373.311 175.86 372.877 175.958 372.373 175.958C371.673 175.958 371.099 175.818 370.651 175.538C370.203 175.23 369.867 174.88 369.643 174.488C369.447 174.096 369.335 173.69 369.307 173.27C369.307 172.822 369.377 172.444 369.517 172.136C369.685 171.828 369.923 171.618 370.231 171.506C370.539 171.394 370.889 171.464 371.281 171.716C371.757 171.996 372.023 172.29 372.079 172.598C372.163 172.878 372.135 173.144 371.995 173.396C371.883 173.648 371.729 173.886 371.533 174.11C371.337 174.334 371.197 174.544 371.113 174.74C371.029 174.908 371.071 175.062 371.239 175.202C371.407 175.314 371.799 175.398 372.415 175.454ZM388.223 174.572C388.223 174.18 388.349 173.83 388.601 173.522C388.881 173.214 389.217 173.06 389.609 173.06C390.001 173.06 390.337 173.214 390.617 173.522C390.897 173.83 391.037 174.18 391.037 174.572C391.037 174.964 390.897 175.3 390.617 175.58C390.337 175.832 390.001 175.958 389.609 175.958C389.217 175.958 388.881 175.832 388.601 175.58C388.349 175.3 388.223 174.964 388.223 174.572ZM388.223 156.47C388.223 156.078 388.349 155.728 388.601 155.42C388.881 155.112 389.217 154.958 389.609 154.958C390.001 154.958 390.337 155.112 390.617 155.42C390.897 155.728 391.037 156.078 391.037 156.47C391.037 156.862 390.897 157.198 390.617 157.478C390.337 157.73 390.001 157.856 389.609 157.856C389.217 157.856 388.881 157.73 388.601 157.478C388.349 157.198 388.223 156.862 388.223 156.47ZM419.531 175.958C419.139 176.042 418.719 176.014 418.271 175.874C417.851 175.734 417.445 175.51 417.053 175.202C416.577 174.838 416.087 174.6 415.583 174.488C415.163 174.404 414.687 174.46 414.155 174.656C413.651 174.824 413.161 175.272 412.685 176C412.209 175.972 412.013 175.356 412.097 174.152C412.209 172.948 412.531 171.31 413.063 169.238C413.595 167.166 414.309 164.73 415.205 161.93C416.129 159.13 417.165 156.12 418.313 152.9C418.733 151.752 418.971 150.8 419.027 150.044C419.111 149.288 419.041 148.686 418.817 148.238C418.593 147.79 418.243 147.482 417.767 147.314C417.319 147.118 416.773 147.02 416.129 147.02C415.205 147.132 414.575 147.258 414.239 147.398C413.931 147.538 413.777 147.706 413.777 147.902C413.777 148.098 413.889 148.308 414.113 148.532C414.337 148.728 414.519 148.952 414.659 149.204C414.827 149.456 414.897 149.722 414.869 150.002C414.841 150.282 414.589 150.562 414.113 150.842C413.721 151.094 413.371 151.164 413.063 151.052C412.755 150.94 412.517 150.73 412.349 150.422C412.209 150.086 412.153 149.708 412.181 149.288C412.209 148.84 412.363 148.42 412.643 148.028C412.923 147.636 413.343 147.3 413.903 147.02C414.463 146.74 415.205 146.6 416.129 146.6C417.473 146.6 418.537 146.922 419.321 147.566C420.105 148.182 420.665 148.952 421.001 149.876C421.337 150.8 421.477 151.78 421.421 152.816C421.393 153.852 421.225 154.762 420.917 155.546C419.909 158.234 418.887 160.628 417.851 162.728C416.843 164.8 415.933 166.634 415.121 168.23C414.309 169.826 413.665 171.212 413.189 172.388C412.741 173.564 412.573 174.6 412.685 175.496C413.105 174.824 413.553 174.404 414.029 174.236C414.533 174.04 415.009 173.97 415.457 174.026C415.961 174.11 416.465 174.306 416.969 174.614C417.417 174.922 417.851 175.174 418.271 175.37C418.719 175.538 419.139 175.594 419.531 175.538C420.035 175.426 420.343 175.3 420.455 175.16C420.567 174.992 420.567 174.824 420.455 174.656C420.371 174.46 420.231 174.264 420.035 174.068C419.839 173.872 419.685 173.662 419.573 173.438C419.461 173.186 419.433 172.948 419.489 172.724C419.545 172.472 419.783 172.206 420.203 171.926C420.735 171.59 421.169 171.576 421.505 171.884C421.869 172.164 422.051 172.57 422.051 173.102C422.079 173.634 421.897 174.194 421.505 174.782C421.113 175.342 420.455 175.734 419.531 175.958ZM441.385 169.7C441.385 170.624 441.343 171.478 441.259 172.262C441.175 173.018 440.951 173.676 440.587 174.236C440.251 174.796 439.705 175.23 438.949 175.538C438.221 175.846 437.213 176 435.925 176C434.581 176 433.517 175.874 432.733 175.622C431.977 175.342 431.403 174.936 431.011 174.404C430.647 173.872 430.409 173.228 430.297 172.472C430.213 171.688 430.171 170.764 430.171 169.7C430.143 166.34 430.129 163.582 430.129 161.426C430.157 159.27 430.171 157.562 430.171 156.302V152.9C430.171 152.228 430.213 151.528 430.297 150.8C430.409 150.044 430.647 149.358 431.011 148.742C431.403 148.126 431.977 147.622 432.733 147.23C433.517 146.81 434.581 146.6 435.925 146.6C437.213 146.6 438.221 146.754 438.949 147.062C439.677 147.37 440.223 147.804 440.587 148.364C440.951 148.924 441.175 149.596 441.259 150.38C441.343 151.136 441.385 151.976 441.385 152.9V169.7ZM440.713 152.9C440.741 152.172 440.713 151.472 440.629 150.8C440.573 150.1 440.391 149.484 440.083 148.952C439.775 148.392 439.285 147.944 438.613 147.608C437.969 147.272 437.073 147.104 435.925 147.104C435.365 147.104 434.931 147.3 434.623 147.692C434.343 148.056 434.133 148.532 433.993 149.12C433.881 149.68 433.811 150.31 433.783 151.01C433.755 151.682 433.741 152.312 433.741 152.9V156.932C433.741 158.304 433.727 160.054 433.699 162.182C433.699 164.282 433.713 166.788 433.741 169.7C433.741 170.624 433.755 171.45 433.783 172.178C433.811 172.878 433.881 173.48 433.993 173.984C434.133 174.46 434.343 174.838 434.623 175.118C434.931 175.37 435.365 175.496 435.925 175.496C437.101 175.496 438.011 175.328 438.655 174.992C439.327 174.656 439.817 174.222 440.125 173.69C440.433 173.13 440.615 172.514 440.671 171.842C440.727 171.142 440.741 170.428 440.713 169.7V152.9ZM456.242 175.958C455.85 176.042 455.43 176.014 454.982 175.874C454.562 175.734 454.156 175.51 453.764 175.202C453.288 174.838 452.798 174.6 452.294 174.488C451.874 174.404 451.398 174.46 450.866 174.656C450.362 174.824 449.872 175.272 449.396 176C448.92 175.972 448.724 175.356 448.808 174.152C448.92 172.948 449.242 171.31 449.774 169.238C450.306 167.166 451.02 164.73 451.916 161.93C452.84 159.13 453.876 156.12 455.024 152.9C455.444 151.752 455.682 150.8 455.738 150.044C455.822 149.288 455.752 148.686 455.528 148.238C455.304 147.79 454.954 147.482 454.478 147.314C454.03 147.118 453.484 147.02 452.84 147.02C451.916 147.132 451.286 147.258 450.95 147.398C450.642 147.538 450.488 147.706 450.488 147.902C450.488 148.098 450.6 148.308 450.824 148.532C451.048 148.728 451.23 148.952 451.37 149.204C451.538 149.456 451.608 149.722 451.58 150.002C451.552 150.282 451.3 150.562 450.824 150.842C450.432 151.094 450.082 151.164 449.774 151.052C449.466 150.94 449.228 150.73 449.06 150.422C448.92 150.086 448.864 149.708 448.892 149.288C448.92 148.84 449.074 148.42 449.354 148.028C449.634 147.636 450.054 147.3 450.614 147.02C451.174 146.74 451.916 146.6 452.84 146.6C454.184 146.6 455.248 146.922 456.032 147.566C456.816 148.182 457.376 148.952 457.712 149.876C458.048 150.8 458.188 151.78 458.132 152.816C458.104 153.852 457.936 154.762 457.628 155.546C456.62 158.234 455.598 160.628 454.562 162.728C453.554 164.8 452.644 166.634 451.832 168.23C451.02 169.826 450.376 171.212 449.9 172.388C449.452 173.564 449.284 174.6 449.396 175.496C449.816 174.824 450.264 174.404 450.74 174.236C451.244 174.04 451.72 173.97 452.168 174.026C452.672 174.11 453.176 174.306 453.68 174.614C454.128 174.922 454.562 175.174 454.982 175.37C455.43 175.538 455.85 175.594 456.242 175.538C456.746 175.426 457.054 175.3 457.166 175.16C457.278 174.992 457.278 174.824 457.166 174.656C457.082 174.46 456.942 174.264 456.746 174.068C456.55 173.872 456.396 173.662 456.284 173.438C456.172 173.186 456.144 172.948 456.2 172.724C456.256 172.472 456.494 172.206 456.914 171.926C457.446 171.59 457.88 171.576 458.216 171.884C458.58 172.164 458.762 172.57 458.762 173.102C458.79 173.634 458.608 174.194 458.216 174.782C457.824 175.342 457.166 175.734 456.242 175.958ZM474.064 175.958C473.672 176.042 473.252 176.014 472.804 175.874C472.384 175.734 471.978 175.51 471.586 175.202C471.11 174.838 470.62 174.6 470.116 174.488C469.696 174.404 469.22 174.46 468.688 174.656C468.184 174.824 467.694 175.272 467.218 176C466.742 175.972 466.546 175.356 466.63 174.152C466.742 172.948 467.064 171.31 467.596 169.238C468.128 167.166 468.842 164.73 469.738 161.93C470.662 159.13 471.698 156.12 472.846 152.9C473.266 151.752 473.504 150.8 473.56 150.044C473.644 149.288 473.574 148.686 473.35 148.238C473.126 147.79 472.776 147.482 472.3 147.314C471.852 147.118 471.306 147.02 470.662 147.02C469.738 147.132 469.108 147.258 468.772 147.398C468.464 147.538 468.31 147.706 468.31 147.902C468.31 148.098 468.422 148.308 468.646 148.532C468.87 148.728 469.052 148.952 469.192 149.204C469.36 149.456 469.43 149.722 469.402 150.002C469.374 150.282 469.122 150.562 468.646 150.842C468.254 151.094 467.904 151.164 467.596 151.052C467.288 150.94 467.05 150.73 466.882 150.422C466.742 150.086 466.686 149.708 466.714 149.288C466.742 148.84 466.896 148.42 467.176 148.028C467.456 147.636 467.876 147.3 468.436 147.02C468.996 146.74 469.738 146.6 470.662 146.6C472.006 146.6 473.07 146.922 473.854 147.566C474.638 148.182 475.198 148.952 475.534 149.876C475.87 150.8 476.01 151.78 475.954 152.816C475.926 153.852 475.758 154.762 475.45 155.546C474.442 158.234 473.42 160.628 472.384 162.728C471.376 164.8 470.466 166.634 469.654 168.23C468.842 169.826 468.198 171.212 467.722 172.388C467.274 173.564 467.106 174.6 467.218 175.496C467.638 174.824 468.086 174.404 468.562 174.236C469.066 174.04 469.542 173.97 469.99 174.026C470.494 174.11 470.998 174.306 471.502 174.614C471.95 174.922 472.384 175.174 472.804 175.37C473.252 175.538 473.672 175.594 474.064 175.538C474.568 175.426 474.876 175.3 474.988 175.16C475.1 174.992 475.1 174.824 474.988 174.656C474.904 174.46 474.764 174.264 474.568 174.068C474.372 173.872 474.218 173.662 474.106 173.438C473.994 173.186 473.966 172.948 474.022 172.724C474.078 172.472 474.316 172.206 474.736 171.926C475.268 171.59 475.702 171.576 476.038 171.884C476.402 172.164 476.584 172.57 476.584 173.102C476.612 173.634 476.43 174.194 476.038 174.782C475.646 175.342 474.988 175.734 474.064 175.958Z" fill="black"/>
</svg>
