<svg width="295" height="172" viewBox="0 0 295 172" fill="none" xmlns="http://www.w3.org/2000/svg">
<path d="M0.72 3.32V2.84C1.70667 2.81333 2.52 2.70667 3.16 2.52C3.8 2.33333 4.30667 2.13333 4.68 1.92C5.10667 1.65333 5.42667 1.36 5.64 1.04L5.68 28.52H6.48V29H1.4V28.52H2.4V3.32H0.72ZM16.7684 28.96C16.3951 29.04 15.9951 29.0133 15.5684 28.88C15.1684 28.7467 14.7818 28.5333 14.4084 28.24C13.9551 27.8933 13.4884 27.6667 13.0084 27.56C12.6084 27.48 12.1551 27.5333 11.6484 27.72C11.1684 27.88 10.7018 28.3067 10.2484 29C9.7951 28.9733 9.60844 28.3867 9.68844 27.24C9.7951 26.0933 10.1018 24.5333 10.6084 22.56C11.1151 20.5867 11.7951 18.2667 12.6484 15.6C13.5284 12.9333 14.5151 10.0667 15.6084 7C16.0084 5.90667 16.2351 5 16.2884 4.28C16.3684 3.56 16.3018 2.98667 16.0884 2.56C15.8751 2.13333 15.5418 1.84 15.0884 1.68C14.6618 1.49333 14.1418 1.4 13.5284 1.4C12.6484 1.50666 12.0484 1.62666 11.7284 1.76C11.4351 1.89333 11.2884 2.05333 11.2884 2.24C11.2884 2.42666 11.3951 2.62666 11.6084 2.84C11.8218 3.02667 11.9951 3.24 12.1284 3.48C12.2884 3.72 12.3551 3.97333 12.3284 4.24C12.3018 4.50667 12.0618 4.77333 11.6084 5.04C11.2351 5.28 10.9018 5.34667 10.6084 5.24C10.3151 5.13333 10.0884 4.93333 9.92844 4.64C9.7951 4.32 9.74177 3.96 9.76844 3.56C9.7951 3.13333 9.94177 2.73333 10.2084 2.36C10.4751 1.98667 10.8751 1.66667 11.4084 1.4C11.9418 1.13333 12.6484 0.999998 13.5284 0.999998C14.8084 0.999998 15.8218 1.30666 16.5684 1.92C17.3151 2.50667 17.8484 3.24 18.1684 4.12C18.4884 5 18.6218 5.93333 18.5684 6.92C18.5418 7.90666 18.3818 8.77333 18.0884 9.52C17.1284 12.08 16.1551 14.36 15.1684 16.36C14.2084 18.3333 13.3418 20.08 12.5684 21.6C11.7951 23.12 11.1818 24.44 10.7284 25.56C10.3018 26.68 10.1418 27.6667 10.2484 28.52C10.6484 27.88 11.0751 27.48 11.5284 27.32C12.0084 27.1333 12.4618 27.0667 12.8884 27.12C13.3684 27.2 13.8484 27.3867 14.3284 27.68C14.7551 27.9733 15.1684 28.2133 15.5684 28.4C15.9951 28.56 16.3951 28.6133 16.7684 28.56C17.2484 28.4533 17.5418 28.3333 17.6484 28.2C17.7551 28.04 17.7551 27.88 17.6484 27.72C17.5684 27.5333 17.4351 27.3467 17.2484 27.16C17.0618 26.9733 16.9151 26.7733 16.8084 26.56C16.7018 26.32 16.6751 26.0933 16.7284 25.88C16.7818 25.64 17.0084 25.3867 17.4084 25.12C17.9151 24.8 18.3284 24.7867 18.6484 25.08C18.9951 25.3467 19.1684 25.7333 19.1684 26.24C19.1951 26.7467 19.0218 27.28 18.6484 27.84C18.2751 28.3733 17.6484 28.7467 16.7684 28.96ZM32.8266 23C32.7999 19.8 32.7866 17.1733 32.7866 15.12C32.8132 13.0667 32.8266 11.44 32.8266 10.24V7C32.8266 6.36 32.8532 5.69333 32.9066 5C32.9599 4.28 33.1466 3.62667 33.4666 3.04C33.7866 2.45333 34.2932 1.97333 34.9866 1.6C35.7066 1.2 36.7066 0.999998 37.9866 0.999998C39.2932 0.999998 40.2932 1.17333 40.9866 1.52C41.7066 1.84 42.2266 2.28 42.5466 2.84C42.8932 3.37333 43.0932 4 43.1466 4.72C43.1999 5.44 43.2132 6.2 43.1866 7C43.1866 9.02667 43.1866 10.8133 43.1866 12.36C43.2132 13.88 43.2266 15.2133 43.2266 16.36C43.2266 17.48 43.2266 18.4267 43.2266 19.2C43.2532 19.9733 43.2666 20.6 43.2666 21.08C43.2666 22.2267 43.2799 22.8667 43.3066 23C43.3066 24.0133 43.2799 24.8933 43.2266 25.64C43.1732 26.3867 42.9732 27.0133 42.6266 27.52C42.3066 28 41.7866 28.3733 41.0666 28.64C40.3466 28.88 39.3199 29 37.9866 29C36.7066 29 35.7066 28.88 34.9866 28.64C34.2932 28.3733 33.7866 27.9867 33.4666 27.48C33.1466 26.9733 32.9599 26.36 32.9066 25.64C32.8532 24.8933 32.8266 24.0133 32.8266 23ZM35.9066 23C35.9066 23.88 35.9199 24.6667 35.9466 25.36C35.9732 26.0267 36.0399 26.6 36.1466 27.08C36.2799 27.5333 36.4799 27.8933 36.7466 28.16C37.0399 28.4 37.4532 28.52 37.9866 28.52C38.4932 28.52 38.8799 28.4 39.1466 28.16C39.4399 27.8933 39.6532 27.5333 39.7866 27.08C39.9199 26.6 39.9866 26.0267 39.9866 25.36C40.0132 24.6667 40.0266 23.88 40.0266 23V20.28C40.0266 19.16 40.0132 17.56 39.9866 15.48C39.9866 13.3733 39.9732 10.5467 39.9466 7C39.9732 6.30667 39.9732 5.64 39.9466 5C39.9199 4.33333 39.8399 3.74667 39.7066 3.24C39.5999 2.70667 39.3999 2.28 39.1066 1.96C38.8399 1.64 38.4666 1.48 37.9866 1.48C37.4532 1.48 37.0399 1.66667 36.7466 2.04C36.4799 2.38667 36.2799 2.84 36.1466 3.4C36.0399 3.93333 35.9732 4.53333 35.9466 5.2C35.9199 5.84 35.9066 6.44 35.9066 7V10.84C35.9066 12.1467 35.8932 13.8133 35.8666 15.84C35.8666 17.84 35.8799 20.2267 35.9066 23ZM54.5319 5.32C54.7185 4.2 54.9985 3.32 55.3719 2.68C55.7719 2.04 56.1852 1.58667 56.6119 1.32C57.0652 1.05333 57.5052 0.946665 57.9319 0.999998C58.3585 1.05333 58.7052 1.2 58.9719 1.44C59.2385 1.65333 59.3985 1.94666 59.4519 2.32C59.5319 2.66666 59.4252 3.01333 59.1319 3.36C58.7852 3.73333 58.4652 3.93333 58.1719 3.96C57.9052 3.96 57.6385 3.89333 57.3719 3.76C57.1319 3.62667 56.9052 3.48 56.6919 3.32C56.4785 3.13333 56.2785 3.05333 56.0919 3.08C55.9052 3.10667 55.7319 3.29333 55.5719 3.64C55.4119 3.98667 55.2519 4.58666 55.0919 5.44C54.7985 6.8 54.6385 8 54.6119 9.04C54.5852 10.08 54.5052 10.9467 54.3719 11.64C54.2385 12.3333 53.9585 12.8533 53.5319 13.2C53.1319 13.5467 52.4252 13.72 51.4119 13.72C52.6385 13.72 53.6519 13.8667 54.4519 14.16C55.2785 14.4267 55.9319 14.8533 56.4119 15.44C56.9185 16 57.2652 16.72 57.4519 17.6C57.6652 18.4533 57.7719 19.4533 57.7719 20.6C57.7985 21.88 57.8119 23.0133 57.8119 24C57.8119 24.9867 57.8519 25.8133 57.9319 26.48C58.0385 27.12 58.2119 27.6133 58.4519 27.96C58.6919 28.3067 59.0785 28.48 59.6119 28.48V29C58.3319 29 57.3452 28.8133 56.6519 28.44C55.9585 28.0667 55.4519 27.52 55.1319 26.8C54.8119 26.08 54.6252 25.2 54.5719 24.16C54.5452 23.12 54.5319 21.9333 54.5319 20.6C54.5319 19 54.3852 17.7867 54.0919 16.96C53.7985 16.1067 53.4385 15.4933 53.0119 15.12C52.5852 14.7467 52.1319 14.5467 51.6519 14.52C51.1719 14.4667 50.7585 14.44 50.4119 14.44L50.4519 28.52H51.2519V29H46.1719V28.52H47.1719V1.48H46.1719V0.999998H51.2519V1.48H50.4119V13.4C51.5585 13.4 52.3585 13.28 52.8119 13.04C53.2652 12.7733 53.5585 12.3333 53.6919 11.72C53.8519 11.08 53.9452 10.2533 53.9719 9.24C54.0252 8.2 54.2119 6.89333 54.5319 5.32ZM74.7594 0.999998V2.96H74.2394V1.48H70.2794L70.3194 28.52H71.1194V29H66.0394V28.52H67.0394V1.48H63.2794V2.96H62.7594V0.999998H74.7594ZM85.4703 1.48C84.937 1.48 84.4436 1.53333 83.9903 1.64C83.5636 1.74667 83.177 2 82.8303 2.4C82.4836 2.8 82.217 3.41333 82.0303 4.24C81.8436 5.04 81.7503 6.14667 81.7503 7.56C81.7503 9.56 81.7636 11.1067 81.7903 12.2C81.8436 13.2667 81.937 14.0533 82.0703 14.56C82.2303 15.0667 82.457 15.36 82.7503 15.44C83.0436 15.52 83.457 15.56 83.9903 15.56C84.5503 15.56 84.937 15.6267 85.1503 15.76C85.3636 15.8667 85.4703 16.0267 85.4703 16.24V1.48ZM89.7103 0.999998V1.48H88.7103V28.48H89.7103V29H84.6303V28.48H85.4303L85.4703 17.72C85.4703 17.1867 85.3636 16.7867 85.1503 16.52C84.9636 16.2533 84.6303 16.12 84.1503 16.12C83.8036 16.12 83.4836 16.1467 83.1903 16.2C82.897 16.2267 82.6303 16.4267 82.3903 16.8C82.177 17.1733 82.017 17.7867 81.9103 18.64C81.8036 19.4667 81.7503 20.68 81.7503 22.28C81.7503 23.6133 81.7503 24.7067 81.7503 25.56C81.7503 26.4133 81.617 27.1067 81.3503 27.64C81.0836 28.1467 80.617 28.5067 79.9503 28.72C79.3103 28.9067 78.3503 29 77.0703 29V28.48C77.577 28.48 77.937 28.4 78.1503 28.24C78.3903 28.08 78.537 27.7733 78.5903 27.32C78.6703 26.84 78.697 26.2 78.6703 25.4C78.6436 24.6 78.6436 23.56 78.6703 22.28C78.6703 21.1333 78.6836 20.16 78.7103 19.36C78.7636 18.56 78.9236 17.9067 79.1903 17.4C79.4836 16.8933 79.9236 16.5333 80.5103 16.32C81.1236 16.08 81.977 15.9333 83.0703 15.88C81.977 15.88 81.137 15.7467 80.5503 15.48C79.9636 15.2133 79.5236 14.76 79.2303 14.12C78.9636 13.48 78.8036 12.6267 78.7503 11.56C78.697 10.4933 78.6703 9.16 78.6703 7.56C78.6703 6.09333 78.777 4.93333 78.9903 4.08C79.2303 3.2 79.6036 2.53333 80.1103 2.08C80.6436 1.62666 81.3503 1.33333 82.2303 1.2C83.1103 1.06666 84.1903 0.999998 85.4703 0.999998H89.7103ZM96.8572 10.24C98.1372 10.24 99.2172 10.2933 100.097 10.4C100.977 10.48 101.684 10.8 102.217 11.36C102.751 11.8933 103.124 12.76 103.337 13.96C103.577 15.1333 103.697 16.8133 103.697 19C103.697 21.5067 103.577 23.44 103.337 24.8C103.124 26.1333 102.751 27.12 102.217 27.76C101.711 28.3733 101.017 28.7333 100.137 28.84C99.2572 28.9467 98.1772 29 96.8972 29H92.6172V28.4H93.6172V0.999998H101.897V3.08H101.297V1.6H96.8572V10.24ZM96.8972 28.36C97.4039 28.36 97.8839 28.3467 98.3372 28.32C98.7905 28.2667 99.1905 27.9733 99.5372 27.44C99.8839 26.88 100.151 25.96 100.337 24.68C100.524 23.4 100.617 21.5067 100.617 19C100.617 16.8667 100.511 15.2533 100.297 14.16C100.111 13.04 99.8439 12.2533 99.4972 11.8C99.1772 11.32 98.7772 11.0667 98.2972 11.04C97.8439 10.9867 97.3639 10.96 96.8572 10.96L96.8972 28.36ZM111.818 1.48L111.858 19.96C111.858 19.7467 111.965 19.56 112.178 19.4C112.391 19.24 112.778 19.16 113.338 19.16C113.845 19.16 114.245 19.08 114.538 18.92C114.831 18.76 115.045 18.3733 115.178 17.76C115.338 17.12 115.431 16.1733 115.458 14.92C115.511 13.6667 115.538 11.9467 115.538 9.76C115.538 7.6 115.445 5.96 115.258 4.84C115.071 3.72 114.805 2.90667 114.458 2.4C114.138 1.89333 113.738 1.61333 113.258 1.56C112.805 1.50667 112.325 1.48 111.818 1.48ZM111.818 0.999998C113.098 0.999998 114.178 1.05333 115.058 1.16C115.938 1.24 116.645 1.56 117.178 2.12C117.711 2.65333 118.085 3.52 118.298 4.72C118.511 5.89333 118.618 7.57333 118.618 9.76C118.618 12.1867 118.565 14.0667 118.458 15.4C118.378 16.7333 118.165 17.72 117.818 18.36C117.471 19 116.925 19.3867 116.178 19.52C115.458 19.6533 114.458 19.72 113.178 19.72C112.698 19.72 112.351 19.8533 112.138 20.12C111.951 20.3867 111.858 20.7867 111.858 21.32V28.52H112.658V29H107.578V28.52H108.578V1.48H107.578V0.999998H111.818ZM129.767 1.48C129.234 1.48 128.741 1.53333 128.287 1.64C127.861 1.74667 127.474 2 127.127 2.4C126.781 2.8 126.514 3.41333 126.327 4.24C126.141 5.04 126.047 6.14667 126.047 7.56C126.047 9.56 126.061 11.1067 126.087 12.2C126.141 13.2667 126.234 14.0533 126.367 14.56C126.527 15.0667 126.754 15.36 127.047 15.44C127.341 15.52 127.754 15.56 128.287 15.56C128.847 15.56 129.234 15.6267 129.447 15.76C129.661 15.8667 129.767 16.0267 129.767 16.24V1.48ZM134.007 0.999998V1.48H133.007V28.48H134.007V29H128.927V28.48H129.727L129.767 17.72C129.767 17.1867 129.661 16.7867 129.447 16.52C129.261 16.2533 128.927 16.12 128.447 16.12C128.101 16.12 127.781 16.1467 127.487 16.2C127.194 16.2267 126.927 16.4267 126.687 16.8C126.474 17.1733 126.314 17.7867 126.207 18.64C126.101 19.4667 126.047 20.68 126.047 22.28C126.047 23.6133 126.047 24.7067 126.047 25.56C126.047 26.4133 125.914 27.1067 125.647 27.64C125.381 28.1467 124.914 28.5067 124.247 28.72C123.607 28.9067 122.647 29 121.367 29V28.48C121.874 28.48 122.234 28.4 122.447 28.24C122.687 28.08 122.834 27.7733 122.887 27.32C122.967 26.84 122.994 26.2 122.967 25.4C122.941 24.6 122.941 23.56 122.967 22.28C122.967 21.1333 122.981 20.16 123.007 19.36C123.061 18.56 123.221 17.9067 123.487 17.4C123.781 16.8933 124.221 16.5333 124.807 16.32C125.421 16.08 126.274 15.9333 127.367 15.88C126.274 15.88 125.434 15.7467 124.847 15.48C124.261 15.2133 123.821 14.76 123.527 14.12C123.261 13.48 123.101 12.6267 123.047 11.56C122.994 10.4933 122.967 9.16 122.967 7.56C122.967 6.09333 123.074 4.93333 123.287 4.08C123.527 3.2 123.901 2.53333 124.407 2.08C124.941 1.62666 125.647 1.33333 126.527 1.2C127.407 1.06666 128.487 0.999998 129.767 0.999998H134.007ZM136.954 30.92C137.727 30.4933 138.221 30.1467 138.434 29.88C138.674 29.6133 138.754 29.4 138.674 29.24C138.594 29.08 138.421 28.9467 138.154 28.84C137.887 28.7067 137.634 28.56 137.394 28.4C137.154 28.24 136.994 28.04 136.914 27.8C136.834 27.5333 136.954 27.1867 137.274 26.76C137.514 26.3867 137.794 26.2 138.114 26.2C138.434 26.1733 138.714 26.2667 138.954 26.48C139.194 26.6933 139.381 27 139.514 27.4C139.674 27.7733 139.701 28.1867 139.594 28.64C139.487 29.0933 139.234 29.5467 138.834 30C138.461 30.48 137.887 30.8933 137.114 31.24L136.954 30.92ZM151.462 3.32V2.84C152.449 2.81333 153.262 2.70667 153.902 2.52C154.542 2.33333 155.049 2.13333 155.422 1.92C155.849 1.65333 156.169 1.36 156.382 1.04L156.422 28.52H157.222V29H152.142V28.52H153.142V3.32H151.462ZM167.711 17.36C167.497 17.5467 167.191 17.68 166.791 17.76C166.391 17.8133 166.017 17.84 165.671 17.84C164.364 17.84 163.351 17.68 162.631 17.36C161.911 17.04 161.377 16.6 161.031 16.04C160.711 15.48 160.511 14.84 160.431 14.12C160.377 13.4 160.351 12.64 160.351 11.84V7.04C160.351 6.05333 160.377 5.18667 160.431 4.44C160.484 3.69333 160.671 3.06667 160.991 2.56C161.311 2.05333 161.831 1.68 162.551 1.44C163.271 1.17333 164.297 1.04 165.631 1.04C166.911 1.04 167.897 1.17333 168.591 1.44C169.311 1.68 169.831 2.05333 170.151 2.56C170.471 3.06667 170.657 3.69333 170.711 4.44C170.764 5.18667 170.791 6.05333 170.791 7.04V19.8V23.04C170.791 23.68 170.764 24.36 170.711 25.08C170.657 25.7733 170.471 26.4133 170.151 27C169.831 27.5867 169.311 28.08 168.591 28.48C167.897 28.8533 166.911 29.04 165.631 29.04C164.484 29.04 163.564 28.9067 162.871 28.64C162.177 28.3733 161.657 28.0533 161.311 27.68C160.991 27.3067 160.817 26.92 160.791 26.52C160.764 26.0933 160.831 25.7333 160.991 25.44C161.177 25.1467 161.431 24.9467 161.751 24.84C162.097 24.7067 162.457 24.76 162.831 25C163.257 25.2667 163.497 25.5467 163.551 25.84C163.631 26.1067 163.631 26.3733 163.551 26.64C163.471 26.88 163.364 27.12 163.231 27.36C163.124 27.6 163.097 27.8133 163.151 28C163.204 28.1867 163.404 28.3467 163.751 28.48C164.124 28.5867 164.751 28.64 165.631 28.64C166.137 28.64 166.537 28.4533 166.831 28.08C167.124 27.7067 167.324 27.24 167.431 26.68C167.564 26.12 167.644 25.52 167.671 24.88C167.697 24.2133 167.711 23.6 167.711 23.04V17.36ZM167.711 16.8V16.08V7.04C167.711 6.16 167.697 5.38667 167.671 4.72C167.644 4.02667 167.564 3.45333 167.431 3C167.324 2.52 167.124 2.16 166.831 1.92C166.537 1.65333 166.137 1.52 165.631 1.52C164.857 1.49333 164.324 1.97333 164.031 2.96C163.737 3.92 163.604 5.28 163.631 7.04V11.84C163.631 12.56 163.644 13.2533 163.671 13.92C163.697 14.5867 163.777 15.1867 163.911 15.72C164.044 16.2267 164.244 16.64 164.511 16.96C164.804 17.28 165.191 17.44 165.671 17.44C165.964 17.44 166.337 17.4 166.791 17.32C167.244 17.24 167.551 17.0667 167.711 16.8ZM173.203 27.64C173.203 27.2667 173.323 26.9333 173.563 26.64C173.83 26.3467 174.15 26.2 174.523 26.2C174.896 26.2 175.216 26.3467 175.483 26.64C175.75 26.9333 175.883 27.2667 175.883 27.64C175.883 28.0133 175.75 28.3333 175.483 28.6C175.216 28.84 174.896 28.96 174.523 28.96C174.15 28.96 173.83 28.84 173.563 28.6C173.323 28.3333 173.203 28.0133 173.203 27.64ZM173.203 10.4C173.203 10.0267 173.323 9.69333 173.563 9.4C173.83 9.10667 174.15 8.96 174.523 8.96C174.896 8.96 175.216 9.10667 175.483 9.4C175.75 9.69333 175.883 10.0267 175.883 10.4C175.883 10.7733 175.75 11.0933 175.483 11.36C175.216 11.6 174.896 11.72 174.523 11.72C174.15 11.72 173.83 11.6 173.563 11.36C173.323 11.0933 173.203 10.7733 173.203 10.4ZM188.655 23C188.655 23.88 188.615 24.6933 188.535 25.44C188.455 26.16 188.242 26.7867 187.895 27.32C187.575 27.8533 187.055 28.2667 186.335 28.56C185.642 28.8533 184.682 29 183.455 29C182.175 29 181.162 28.88 180.415 28.64C179.695 28.3733 179.149 27.9867 178.775 27.48C178.429 26.9733 178.202 26.36 178.095 25.64C178.015 24.8933 177.975 24.0133 177.975 23C177.949 19.8 177.935 17.1733 177.935 15.12C177.962 13.0667 177.975 11.44 177.975 10.24V7C177.975 6.36 178.015 5.69333 178.095 5C178.202 4.28 178.429 3.62667 178.775 3.04C179.149 2.45333 179.695 1.97333 180.415 1.6C181.162 1.2 182.175 0.999998 183.455 0.999998C184.682 0.999998 185.642 1.14667 186.335 1.44C187.029 1.73333 187.549 2.14667 187.895 2.68C188.242 3.21333 188.455 3.85333 188.535 4.6C188.615 5.32 188.655 6.12 188.655 7V23ZM188.015 7C188.042 6.30667 188.015 5.64 187.935 5C187.882 4.33333 187.709 3.74667 187.415 3.24C187.122 2.70667 186.655 2.28 186.015 1.96C185.402 1.64 184.549 1.48 183.455 1.48C182.922 1.48 182.509 1.66667 182.215 2.04C181.949 2.38667 181.749 2.84 181.615 3.4C181.509 3.93333 181.442 4.53333 181.415 5.2C181.389 5.84 181.375 6.44 181.375 7V10.84C181.375 12.1467 181.362 13.8133 181.335 15.84C181.335 17.84 181.349 20.2267 181.375 23C181.375 23.88 181.389 24.6667 181.415 25.36C181.442 26.0267 181.509 26.6 181.615 27.08C181.749 27.5333 181.949 27.8933 182.215 28.16C182.509 28.4 182.922 28.52 183.455 28.52C184.575 28.52 185.442 28.36 186.055 28.04C186.695 27.72 187.162 27.3067 187.455 26.8C187.749 26.2667 187.922 25.68 187.975 25.04C188.029 24.3733 188.042 23.6933 188.015 23V7ZM202.444 23C202.444 23.88 202.404 24.6933 202.324 25.44C202.244 26.16 202.031 26.7867 201.684 27.32C201.364 27.8533 200.844 28.2667 200.124 28.56C199.431 28.8533 198.471 29 197.244 29C195.964 29 194.951 28.88 194.204 28.64C193.484 28.3733 192.938 27.9867 192.564 27.48C192.218 26.9733 191.991 26.36 191.884 25.64C191.804 24.8933 191.764 24.0133 191.764 23C191.738 19.8 191.724 17.1733 191.724 15.12C191.751 13.0667 191.764 11.44 191.764 10.24V7C191.764 6.36 191.804 5.69333 191.884 5C191.991 4.28 192.218 3.62667 192.564 3.04C192.938 2.45333 193.484 1.97333 194.204 1.6C194.951 1.2 195.964 0.999998 197.244 0.999998C198.471 0.999998 199.431 1.14667 200.124 1.44C200.818 1.73333 201.338 2.14667 201.684 2.68C202.031 3.21333 202.244 3.85333 202.324 4.6C202.404 5.32 202.444 6.12 202.444 7V23ZM201.804 7C201.831 6.30667 201.804 5.64 201.724 5C201.671 4.33333 201.498 3.74667 201.204 3.24C200.911 2.70667 200.444 2.28 199.804 1.96C199.191 1.64 198.338 1.48 197.244 1.48C196.711 1.48 196.298 1.66667 196.004 2.04C195.738 2.38667 195.538 2.84 195.404 3.4C195.298 3.93333 195.231 4.53333 195.204 5.2C195.178 5.84 195.164 6.44 195.164 7V10.84C195.164 12.1467 195.151 13.8133 195.124 15.84C195.124 17.84 195.138 20.2267 195.164 23C195.164 23.88 195.178 24.6667 195.204 25.36C195.231 26.0267 195.298 26.6 195.404 27.08C195.538 27.5333 195.738 27.8933 196.004 28.16C196.298 28.4 196.711 28.52 197.244 28.52C198.364 28.52 199.231 28.36 199.844 28.04C200.484 27.72 200.951 27.3067 201.244 26.8C201.538 26.2667 201.711 25.68 201.764 25.04C201.818 24.3733 201.831 23.6933 201.804 23V7ZM7.49 98.02C8.56333 98.02 9.49667 97.95 10.29 97.81C11.13 97.6233 11.8067 97.0167 12.32 95.99C12.88 94.9633 13.3 93.33 13.58 91.09C13.86 88.85 14 85.6533 14 81.5C14 78.3733 13.9533 75.8533 13.86 73.94C13.7667 71.98 13.5567 70.4633 13.23 69.39C12.9033 68.27 12.46 67.5233 11.9 67.15C11.34 66.73 10.6167 66.52 9.73 66.52C8.89 66.52 8.28333 66.7533 7.91 67.22C7.58333 67.6867 7.42 68.3867 7.42 69.32L7.49 98.02ZM0 50H7.42C9.66 50 11.4333 50.2333 12.74 50.7C14.0933 51.12 15.12 51.7267 15.82 52.52C16.52 53.2667 16.9633 54.13 17.15 55.11C17.3833 56.09 17.5 57.0933 17.5 58.12C17.5 59.3333 17.4767 60.43 17.43 61.41C17.3833 62.3433 17.1967 63.16 16.87 63.86C16.5433 64.5133 16.0533 65.0267 15.4 65.4C14.7467 65.7733 13.8133 65.96 12.6 65.96C14.28 65.96 15.5867 66.3567 16.52 67.15C17.4533 67.8967 18.13 68.9467 18.55 70.3C18.97 71.6533 19.2033 73.2867 19.25 75.2C19.3433 77.1133 19.39 79.2133 19.39 81.5C19.39 85.84 19.18 89.2 18.76 91.58C18.3867 93.9133 17.7333 95.64 16.8 96.76C15.9133 97.88 14.7 98.5333 13.16 98.72C11.6667 98.9067 9.77667 99 7.49 99H0V98.02H1.75V50.98H0V50ZM7.42 66.87C7.42 66.4967 7.60667 66.17 7.98 65.89C8.35333 65.61 9.03 65.47 10.01 65.47C10.85 65.47 11.5033 65.4233 11.97 65.33C12.4367 65.2367 12.7867 65.0033 13.02 64.63C13.2533 64.21 13.3933 63.6033 13.44 62.81C13.4867 62.0167 13.51 60.92 13.51 59.52C13.51 57.3733 13.37 55.74 13.09 54.62C12.8567 53.4533 12.4833 52.6133 11.97 52.1C11.4567 51.54 10.8267 51.2133 10.08 51.12C9.33333 51.0267 8.44667 50.98 7.42 50.98V66.87ZM42.6513 61.2C42.6513 61.2 42.488 61.6433 42.1613 62.53C41.8813 63.37 41.508 64.5133 41.0413 65.96C40.6213 67.36 40.108 68.97 39.5013 70.79C38.9413 72.61 38.358 74.4533 37.7513 76.32C36.3047 80.7533 34.6713 85.77 32.8513 91.37V98.16H34.2513V99H25.3613V98.16H27.1113V50.84H25.3613V50H34.2513V50.84H32.7813L32.8513 88.64C32.8513 88.64 32.9913 88.22 33.2713 87.38C33.598 86.4933 33.9947 85.35 34.4613 83.95C34.928 82.5033 35.4413 80.8933 36.0013 79.12C36.608 77.3 37.2147 75.4333 37.8213 73.52C39.268 69.0867 40.878 64.07 42.6513 58.47V50.84H40.9013V50H49.7913V50.84H48.3213L48.3913 98.16H49.7913V99H40.9013V98.16H42.6513V61.2ZM63.2029 98.02C64.2762 98.02 65.2096 97.95 66.0029 97.81C66.8429 97.6233 67.5196 97.0167 68.0329 95.99C68.5929 94.9633 69.0129 93.33 69.2929 91.09C69.5729 88.85 69.7129 85.6533 69.7129 81.5C69.7129 78.3733 69.6662 75.8533 69.5729 73.94C69.4796 71.98 69.2696 70.4633 68.9429 69.39C68.6162 68.27 68.1729 67.5233 67.6129 67.15C67.0529 66.73 66.3296 66.52 65.4429 66.52C64.6029 66.52 63.9962 66.7533 63.6229 67.22C63.2962 67.6867 63.1329 68.3867 63.1329 69.32L63.2029 98.02ZM55.7129 50H63.1329C65.3729 50 67.1462 50.2333 68.4529 50.7C69.8062 51.12 70.8329 51.7267 71.5329 52.52C72.2329 53.2667 72.6762 54.13 72.8629 55.11C73.0962 56.09 73.2129 57.0933 73.2129 58.12C73.2129 59.3333 73.1896 60.43 73.1429 61.41C73.0962 62.3433 72.9096 63.16 72.5829 63.86C72.2562 64.5133 71.7662 65.0267 71.1129 65.4C70.4596 65.7733 69.5262 65.96 68.3129 65.96C69.9929 65.96 71.2996 66.3567 72.2329 67.15C73.1662 67.8967 73.8429 68.9467 74.2629 70.3C74.6829 71.6533 74.9162 73.2867 74.9629 75.2C75.0562 77.1133 75.1029 79.2133 75.1029 81.5C75.1029 85.84 74.8929 89.2 74.4729 91.58C74.0996 93.9133 73.4462 95.64 72.5129 96.76C71.6262 97.88 70.4129 98.5333 68.8729 98.72C67.3796 98.9067 65.4896 99 63.2029 99H55.7129V98.02H57.4629V50.98H55.7129V50ZM63.1329 66.87C63.1329 66.4967 63.3196 66.17 63.6929 65.89C64.0662 65.61 64.7429 65.47 65.7229 65.47C66.5629 65.47 67.2162 65.4233 67.6829 65.33C68.1496 65.2367 68.4996 65.0033 68.7329 64.63C68.9662 64.21 69.1062 63.6033 69.1529 62.81C69.1996 62.0167 69.2229 60.92 69.2229 59.52C69.2229 57.3733 69.0829 55.74 68.8029 54.62C68.5696 53.4533 68.1962 52.6133 67.6829 52.1C67.1696 51.54 66.5396 51.2133 65.7929 51.12C65.0462 51.0267 64.1596 50.98 63.1329 50.98V66.87ZM92.7642 86.26L87.7242 53.43L83.0342 88.43C83.0342 87.73 83.5009 87.1933 84.4342 86.82C85.4142 86.4467 86.4642 86.26 87.5842 86.26H92.7642ZM92.9042 86.96H87.3042C86.8842 86.96 86.4176 87.0067 85.9042 87.1C85.4376 87.1467 84.9709 87.2867 84.5042 87.52C84.0842 87.7067 83.7109 87.9867 83.3842 88.36C83.1042 88.6867 82.9409 89.13 82.8942 89.69L81.7742 98.3H82.9642V99C82.8242 99 82.5442 99 82.1242 99C81.7509 99 81.3776 99 81.0042 99C80.6309 99 80.3042 99 80.0242 99C79.6976 99 79.5342 98.9767 79.5342 98.93V98.3H80.6542C80.6542 98.2533 80.7476 97.5533 80.9342 96.2C81.1209 94.8 81.3542 93.0033 81.6342 90.81C81.9609 88.57 82.3109 86.0267 82.6842 83.18C83.0576 80.3333 83.4309 77.44 83.8042 74.5C84.6909 67.5467 85.6942 59.66 86.8142 50.84H85.0642V50H92.6242L101.374 98.3H102.774V99H92.7642V98.3H94.5142L92.9042 86.96ZM118.259 50L127.009 98.3H128.409V99H118.399V98.3H120.149L113.359 53.43L107.409 98.3H108.599V99C108.459 99 108.179 99 107.759 99C107.386 99 107.012 99 106.639 99C106.266 99 105.939 99 105.659 99C105.332 99 105.169 98.9767 105.169 98.93V98.3H106.289C106.289 98.2533 106.382 97.5533 106.569 96.2C106.756 94.8 106.989 93.0033 107.269 90.81C107.596 88.57 107.946 86.0267 108.319 83.18C108.692 80.3333 109.066 77.44 109.439 74.5C110.326 67.5467 111.329 59.66 112.449 50.84H110.699V50H118.259ZM141.361 98.09C142.247 98.09 143.087 98.0433 143.881 97.95C144.721 97.8567 145.421 97.39 145.981 96.55C146.587 95.6633 147.054 94.24 147.381 92.28C147.707 90.32 147.871 87.45 147.871 83.67C147.871 79.8433 147.824 76.8333 147.731 74.64C147.684 72.4467 147.521 70.8133 147.241 69.74C147.007 68.62 146.634 67.92 146.121 67.64C145.607 67.36 144.907 67.22 144.021 67.22C143.041 67.22 142.364 67.1033 141.991 66.87C141.617 66.59 141.431 66.2633 141.431 65.89L141.361 98.09ZM133.941 99V98.09H135.691V50.84H133.941V50H143.041V50.84H141.431V63.44C141.431 64.3733 141.594 65.0733 141.921 65.54C142.294 66.0067 142.901 66.24 143.741 66.24C145.981 66.24 147.731 66.3567 148.991 66.59C150.297 66.8233 151.254 67.5 151.861 68.62C152.467 69.74 152.841 71.4667 152.981 73.8C153.167 76.1333 153.261 79.4233 153.261 83.67C153.261 87.4967 153.074 90.46 152.701 92.56C152.327 94.6133 151.674 96.13 150.741 97.11C149.807 98.0433 148.571 98.6033 147.031 98.79C145.491 98.93 143.601 99 141.361 99H133.941ZM179.432 50C179.432 50 179.432 50.7 179.432 52.1C179.432 53.4533 179.432 55.25 179.432 57.49C179.432 59.73 179.432 62.2967 179.432 65.19C179.432 68.0367 179.432 70.9533 179.432 73.94C179.479 76.9267 179.502 79.8667 179.502 82.76C179.502 85.6067 179.502 88.1733 179.502 90.46C179.502 92.7 179.502 94.5433 179.502 95.99C179.502 97.39 179.502 98.1133 179.502 98.16H183.422V101.94H182.582V99H157.312V101.94H156.472V98.16H159.832C160.952 96.1067 161.956 93.6333 162.842 90.74C163.636 88.3133 164.336 85.3267 164.942 81.78C165.596 78.1867 165.922 74.0567 165.922 69.39V50H179.432ZM166.902 50.84V69.32C166.902 73.9867 166.576 78.1167 165.922 81.71C165.316 85.2567 164.639 88.2667 163.892 90.74C163.006 93.6333 162.002 96.1067 160.882 98.16H173.762V50.84H166.902ZM204.868 61.2C204.868 61.2 204.705 61.6433 204.378 62.53C204.098 63.37 203.725 64.5133 203.258 65.96C202.838 67.36 202.325 68.97 201.718 70.79C201.158 72.61 200.575 74.4533 199.968 76.32C198.521 80.7533 196.888 85.77 195.068 91.37V98.16H196.468V99H187.578V98.16H189.328V50.84H187.578V50H196.468V50.84H194.998L195.068 88.64C195.068 88.64 195.208 88.22 195.488 87.38C195.815 86.4933 196.211 85.35 196.678 83.95C197.145 82.5033 197.658 80.8933 198.218 79.12C198.825 77.3 199.431 75.4333 200.038 73.52C201.485 69.0867 203.095 64.07 204.868 58.47V50.84H203.118V50H212.008V50.84H210.538L210.608 98.16H212.008V99H203.118V98.16H204.868V61.2ZM217.93 96.62C217.93 95.9667 218.14 95.3833 218.56 94.87C219.026 94.3567 219.586 94.1 220.24 94.1C220.893 94.1 221.453 94.3567 221.92 94.87C222.386 95.3833 222.62 95.9667 222.62 96.62C222.62 97.2733 222.386 97.8333 221.92 98.3C221.453 98.72 220.893 98.93 220.24 98.93C219.586 98.93 219.026 98.72 218.56 98.3C218.14 97.8333 217.93 97.2733 217.93 96.62ZM7.49 168.02C8.56333 168.02 9.49667 167.95 10.29 167.81C11.13 167.623 11.8067 167.017 12.32 165.99C12.88 164.963 13.3 163.33 13.58 161.09C13.86 158.85 14 155.653 14 151.5C14 148.373 13.9533 145.853 13.86 143.94C13.7667 141.98 13.5567 140.463 13.23 139.39C12.9033 138.27 12.46 137.523 11.9 137.15C11.34 136.73 10.6167 136.52 9.73 136.52C8.89 136.52 8.28333 136.753 7.91 137.22C7.58333 137.687 7.42 138.387 7.42 139.32L7.49 168.02ZM0 120H7.42C9.66 120 11.4333 120.233 12.74 120.7C14.0933 121.12 15.12 121.727 15.82 122.52C16.52 123.267 16.9633 124.13 17.15 125.11C17.3833 126.09 17.5 127.093 17.5 128.12C17.5 129.333 17.4767 130.43 17.43 131.41C17.3833 132.343 17.1967 133.16 16.87 133.86C16.5433 134.513 16.0533 135.027 15.4 135.4C14.7467 135.773 13.8133 135.96 12.6 135.96C14.28 135.96 15.5867 136.357 16.52 137.15C17.4533 137.897 18.13 138.947 18.55 140.3C18.97 141.653 19.2033 143.287 19.25 145.2C19.3433 147.113 19.39 149.213 19.39 151.5C19.39 155.84 19.18 159.2 18.76 161.58C18.3867 163.913 17.7333 165.64 16.8 166.76C15.9133 167.88 14.7 168.533 13.16 168.72C11.6667 168.907 9.77667 169 7.49 169H0V168.02H1.75V120.98H0V120ZM7.42 136.87C7.42 136.497 7.60667 136.17 7.98 135.89C8.35333 135.61 9.03 135.47 10.01 135.47C10.85 135.47 11.5033 135.423 11.97 135.33C12.4367 135.237 12.7867 135.003 13.02 134.63C13.2533 134.21 13.3933 133.603 13.44 132.81C13.4867 132.017 13.51 130.92 13.51 129.52C13.51 127.373 13.37 125.74 13.09 124.62C12.8567 123.453 12.4833 122.613 11.97 122.1C11.4567 121.54 10.8267 121.213 10.08 121.12C9.33333 121.027 8.44667 120.98 7.42 120.98V136.87ZM32.7813 120.84L32.8513 153.18C32.8513 152.807 33.038 152.48 33.4113 152.2C33.7847 151.92 34.4613 151.78 35.4413 151.78C36.328 151.78 37.028 151.64 37.5413 151.36C38.0547 151.08 38.428 150.403 38.6613 149.33C38.9413 148.21 39.1047 146.553 39.1513 144.36C39.2447 142.167 39.2913 139.157 39.2913 135.33C39.2913 131.55 39.128 128.68 38.8013 126.72C38.4747 124.76 38.008 123.337 37.4013 122.45C36.8413 121.563 36.1413 121.073 35.3013 120.98C34.508 120.887 33.668 120.84 32.7813 120.84ZM32.7813 120C35.0213 120 36.9113 120.093 38.4513 120.28C39.9913 120.42 41.228 120.98 42.1613 121.96C43.0947 122.893 43.748 124.41 44.1213 126.51C44.4947 128.563 44.6813 131.503 44.6813 135.33C44.6813 139.577 44.588 142.867 44.4013 145.2C44.2613 147.533 43.888 149.26 43.2813 150.38C42.6747 151.5 41.718 152.177 40.4113 152.41C39.1513 152.643 37.4013 152.76 35.1613 152.76C34.3213 152.76 33.7147 152.993 33.3413 153.46C33.0147 153.927 32.8513 154.627 32.8513 155.56V168.16H34.2513V169H25.3613V168.16H27.1113V120.84H25.3613V120H32.7813ZM66.7122 120V123.08H65.8022V120.84H56.9122L56.9822 143.73C56.9822 143.263 57.1689 142.913 57.5422 142.68C57.9155 142.4 58.5922 142.26 59.5722 142.26H62.9322V140.79H63.8422V144.5H62.9322V143.17H59.2922C58.4522 143.17 57.8455 143.403 57.4722 143.87C57.1455 144.337 56.9822 145.037 56.9822 145.97V168.16H65.8022V165.92H66.7122V169H49.4922V168.16H51.2422V120.84H49.4922V120H66.7122ZM82.9921 156.89L73.8921 126.16L74.1021 168.16H75.7121V169H71.1621V168.16H72.9121V120.84H71.1621V120H78.5821L85.7221 145.06L93.8421 120H99.9321V120.84H98.1821L98.2521 168.16H99.9321V169H90.4821V168.16H92.5121V127.49L82.9921 156.89ZM123.724 120V123.08H122.814V120.84H113.924L113.994 143.73C113.994 143.263 114.181 142.913 114.554 142.68C114.927 142.4 115.604 142.26 116.584 142.26H119.944V140.79H120.854V144.5H119.944V143.17H116.304C115.464 143.17 114.857 143.403 114.484 143.87C114.157 144.337 113.994 145.037 113.994 145.97V168.16H122.814V165.92H123.724V169H106.504V168.16H108.254V120.84H106.504V120H123.724ZM145.044 145.76H139.934C139.654 145.76 139.257 145.783 138.744 145.83C138.277 145.877 137.81 145.993 137.344 146.18C136.877 146.32 136.48 146.53 136.154 146.81C135.827 147.09 135.664 147.463 135.664 147.93V168.16H137.064V169H128.174V168.16H129.924V120.84H128.174V120H137.064V120.84H135.594L135.664 146.04C135.664 145.853 135.804 145.69 136.084 145.55C136.364 145.41 136.737 145.293 137.204 145.2C137.67 145.06 138.16 144.967 138.674 144.92C139.187 144.827 139.7 144.78 140.214 144.78H145.044V120.84H143.294V120H152.184V120.84H150.714L150.784 168.16H152.184V169H143.294V168.16H145.044V145.76ZM169.122 156.26L164.082 123.43L159.392 158.43C159.392 157.73 159.858 157.193 160.792 156.82C161.772 156.447 162.822 156.26 163.942 156.26H169.122ZM169.262 156.96H163.662C163.242 156.96 162.775 157.007 162.262 157.1C161.795 157.147 161.328 157.287 160.862 157.52C160.442 157.707 160.068 157.987 159.742 158.36C159.462 158.687 159.298 159.13 159.252 159.69L158.132 168.3H159.322V169C159.182 169 158.902 169 158.482 169C158.108 169 157.735 169 157.362 169C156.988 169 156.662 169 156.382 169C156.055 169 155.892 168.977 155.892 168.93V168.3H157.012C157.012 168.253 157.105 167.553 157.292 166.2C157.478 164.8 157.712 163.003 157.992 160.81C158.318 158.57 158.668 156.027 159.042 153.18C159.415 150.333 159.788 147.44 160.162 144.5C161.048 137.547 162.052 129.66 163.172 120.84H161.422V120H168.982L177.732 168.3H179.132V169H169.122V168.3H170.872L169.262 156.96ZM215.275 120V123.71H214.295V120.84H207.645L207.715 168.16H209.115V169H200.225V168.16H201.975V120.84H200.225V120H215.275ZM221.782 158.5C221.736 152.9 221.712 148.303 221.712 144.71C221.759 141.117 221.782 138.27 221.782 136.17V130.5C221.782 129.38 221.829 128.213 221.922 127C222.016 125.74 222.342 124.597 222.902 123.57C223.462 122.543 224.349 121.703 225.562 121.05C226.822 120.35 228.572 120 230.812 120C233.099 120 234.849 120.303 236.062 120.91C237.322 121.47 238.232 122.24 238.792 123.22C239.399 124.153 239.749 125.25 239.842 126.51C239.936 127.77 239.959 129.1 239.912 130.5C239.912 134.047 239.912 137.173 239.912 139.88C239.959 142.54 239.982 144.873 239.982 146.88C239.982 148.84 239.982 150.497 239.982 151.85C240.029 153.203 240.052 154.3 240.052 155.14C240.052 157.147 240.076 158.267 240.122 158.5C240.122 160.273 240.076 161.813 239.982 163.12C239.889 164.427 239.539 165.523 238.932 166.41C238.372 167.25 237.462 167.903 236.202 168.37C234.942 168.79 233.146 169 230.812 169C228.572 169 226.822 168.79 225.562 168.37C224.349 167.903 223.462 167.227 222.902 166.34C222.342 165.453 222.016 164.38 221.922 163.12C221.829 161.813 221.782 160.273 221.782 158.5ZM227.172 158.5C227.172 160.04 227.196 161.417 227.242 162.63C227.289 163.797 227.406 164.8 227.592 165.64C227.826 166.433 228.176 167.063 228.642 167.53C229.156 167.95 229.879 168.16 230.812 168.16C231.699 168.16 232.376 167.95 232.842 167.53C233.356 167.063 233.729 166.433 233.962 165.64C234.196 164.8 234.312 163.797 234.312 162.63C234.359 161.417 234.382 160.04 234.382 158.5V153.74C234.382 151.78 234.359 148.98 234.312 145.34C234.312 141.653 234.289 136.707 234.242 130.5C234.289 129.287 234.289 128.12 234.242 127C234.196 125.833 234.056 124.807 233.822 123.92C233.636 122.987 233.286 122.24 232.772 121.68C232.306 121.12 231.652 120.84 230.812 120.84C229.879 120.84 229.156 121.167 228.642 121.82C228.176 122.427 227.826 123.22 227.592 124.2C227.406 125.133 227.289 126.183 227.242 127.35C227.196 128.47 227.172 129.52 227.172 130.5V137.22C227.172 139.507 227.149 142.423 227.102 145.97C227.102 149.47 227.126 153.647 227.172 158.5ZM265.087 120C265.087 120 265.087 120.7 265.087 122.1C265.087 123.453 265.087 125.25 265.087 127.49C265.087 129.73 265.087 132.297 265.087 135.19C265.087 138.037 265.087 140.953 265.087 143.94C265.133 146.927 265.157 149.867 265.157 152.76C265.157 155.607 265.157 158.173 265.157 160.46C265.157 162.7 265.157 164.543 265.157 165.99C265.157 167.39 265.157 168.113 265.157 168.16H269.077V171.94H268.237V169H242.967V171.94H242.127V168.16H245.487C246.607 166.107 247.61 163.633 248.497 160.74C249.29 158.313 249.99 155.327 250.597 151.78C251.25 148.187 251.577 144.057 251.577 139.39V120H265.087ZM252.557 120.84V139.32C252.557 143.987 252.23 148.117 251.577 151.71C250.97 155.257 250.293 158.267 249.547 160.74C248.66 163.633 247.657 166.107 246.537 168.16H259.417V120.84H252.557ZM284.922 156.26L279.882 123.43L275.192 158.43C275.192 157.73 275.659 157.193 276.592 156.82C277.572 156.447 278.622 156.26 279.742 156.26H284.922ZM285.062 156.96H279.462C279.042 156.96 278.576 157.007 278.062 157.1C277.596 157.147 277.129 157.287 276.662 157.52C276.242 157.707 275.869 157.987 275.542 158.36C275.262 158.687 275.099 159.13 275.052 159.69L273.932 168.3H275.122V169C274.982 169 274.702 169 274.282 169C273.909 169 273.536 169 273.162 169C272.789 169 272.462 169 272.182 169C271.856 169 271.692 168.977 271.692 168.93V168.3H272.812C272.812 168.253 272.906 167.553 273.092 166.2C273.279 164.8 273.512 163.003 273.792 160.81C274.119 158.57 274.469 156.027 274.842 153.18C275.216 150.333 275.589 147.44 275.962 144.5C276.849 137.547 277.852 129.66 278.972 120.84H277.222V120H284.782L293.532 168.3H294.932V169H284.922V168.3H286.672L285.062 156.96Z" fill="black"/>
</svg>
