<svg width="14" height="14" viewBox="0 0 14 14" fill="none" xmlns="http://www.w3.org/2000/svg">
<g clip-path="url(#clip0_36_492)">
<path d="M14.0001 1.15946C13.919 1.53911 13.8323 1.91781 13.7569 2.29839C13.1226 5.40223 12.4893 8.50482 11.8571 11.6062C11.7525 12.1214 11.6439 12.6348 11.541 13.1509C11.3789 13.9719 10.6721 14.2571 10.1047 13.7251C9.28126 12.9527 8.46048 12.1772 7.6424 11.3986C7.5573 11.3172 7.50218 11.2976 7.39925 11.3846C6.68843 12.0082 5.97275 12.6217 5.25787 13.2379C5.21816 13.2725 5.17682 13.3071 5.13548 13.337C4.86072 13.5324 4.5738 13.4183 4.48707 13.0565C4.39954 12.6824 4.33632 12.3019 4.2658 11.9232C4.034 10.6845 3.80354 9.4452 3.57443 8.20528C3.5687 8.16024 3.55248 8.11784 3.5275 8.0826C3.50252 8.04736 3.46972 8.0206 3.43259 8.00518C2.46592 7.52205 1.5006 7.03488 0.53663 6.54365C0.0551844 6.29866 -0.136096 5.71891 0.0851741 5.20087C0.142597 5.07475 0.222219 4.96386 0.318943 4.8753C0.415666 4.78674 0.527356 4.72246 0.646859 4.68658C3.54796 3.58506 6.44851 2.48198 9.34853 1.37734C10.4695 0.951876 11.5945 0.535766 12.7073 0.0906685C13.3225 -0.158062 13.8355 0.100019 14.0001 0.778887V1.15946ZM10.7078 13.064L13.1823 0.928499L0.814636 5.63195C0.871372 5.66841 0.895687 5.68899 0.924055 5.70208C1.88046 6.18645 2.83768 6.66801 3.79327 7.15519C3.82799 7.17253 3.86606 7.17898 3.90364 7.17389C3.94121 7.1688 3.97695 7.15235 4.00725 7.1262C5.34622 6.26718 6.68546 5.40877 8.02497 4.55099C8.74416 4.09031 9.46309 3.62932 10.1817 3.16801C10.3576 3.05487 10.5311 3.01092 10.7037 3.16334C10.9258 3.3597 10.9217 3.66921 10.6964 3.94132C9.31854 5.60452 7.94067 7.26771 6.5628 8.9309C6.532 8.96831 6.50201 9.00758 6.46391 9.05527L10.7078 13.064ZM4.94096 10.9731C4.96447 10.9049 4.975 10.8796 4.9823 10.8506C5.12738 10.2727 5.2757 9.6958 5.41349 9.11511C5.45251 8.94294 5.52959 8.78539 5.63719 8.65786C6.46338 7.66605 7.28767 6.67238 8.11007 5.67683C8.14087 5.63943 8.16924 5.60015 8.19842 5.56088L8.18382 5.54311L4.38171 7.97899C4.5665 8.96644 4.74968 9.94733 4.94096 10.9731ZM5.62747 11.7324L6.86026 10.6711L6.07568 9.92302L5.62747 11.7324Z" fill="white"/>
</g>
<defs>
<clipPath id="clip0_36_492">
<rect width="14" height="14" fill="white"/>
</clipPath>
</defs>
</svg>
