<svg width="14" height="14" viewBox="0 0 14 14" fill="none" xmlns="http://www.w3.org/2000/svg">
<g clip-path="url(#clip0_36_488)">
<path d="M13.9057 3.82402V9.32514C13.8958 9.36203 13.8881 9.39944 13.8823 9.4372C13.8539 9.67966 13.8407 9.92517 13.7992 10.1656C13.6989 10.8147 13.4224 11.4235 13 11.9249C12.2901 12.7481 11.3652 13.0914 10.3166 13.1708C10.0317 13.1922 9.74568 13.2065 9.45969 13.2238H5.21859L5.01576 13.2004C4.56143 13.1555 4.09594 13.1566 3.65378 13.0577C2.17315 12.7277 1.26246 11.7966 0.92475 10.3123C0.782771 9.68271 0.780743 9.0399 0.775672 8.40014C0.765531 7.21366 0.765531 6.02515 0.775672 4.8346C0.781757 4.18669 0.792913 3.53674 0.926778 2.89902C1.06169 2.19492 1.41081 1.55023 1.92596 1.05391C2.44112 0.55759 3.09691 0.234103 3.80286 0.128085C4.41291 0.0385461 5.02906 -0.00233075 5.64554 0.00583827C6.65156 -0.00536771 7.65758 -0.00231154 8.66461 0.00583827C9.40899 0.00583827 10.1544 0.00583848 10.8957 0.134198C12.4828 0.41231 13.5852 1.52781 13.8296 3.19037C13.858 3.39819 13.8793 3.61111 13.9057 3.82402ZM7.35232 12.0523V12.0288C7.82795 12.0288 8.30358 12.039 8.77921 12.0288C9.43738 12.0125 10.0976 12.039 10.7497 11.9076C11.6776 11.7202 12.2962 11.1772 12.566 10.2552C12.6784 9.81759 12.7303 9.36646 12.7201 8.91459C12.7323 7.58074 12.7357 6.24689 12.7303 4.91304C12.7303 4.34561 12.7303 3.77614 12.6197 3.21686C12.425 2.25213 11.8703 1.6195 10.9079 1.36889C10.3592 1.22729 9.79233 1.22729 9.2376 1.22118C8.14943 1.20793 7.06127 1.21303 5.97412 1.21608C5.32304 1.21608 4.66994 1.2059 4.02698 1.31796C3.03922 1.49623 2.38409 2.0545 2.12548 3.04979C2.01796 3.52823 1.97061 4.01833 1.98452 4.50861C1.9737 5.9158 1.9737 7.323 1.98452 8.7302C1.98836 9.15114 2.02225 9.57125 2.08593 9.98731C2.12557 10.3089 2.23584 10.6177 2.40877 10.8913C2.5817 11.1649 2.81297 11.3965 3.08587 11.5694C3.52038 11.8327 4.0175 11.9734 4.52492 11.9769C5.46807 12.0166 6.41019 12.0299 7.35232 12.0523Z" fill="white"/>
<path d="M10.7337 6.72248C10.7124 7.39482 10.4931 8.04571 10.1034 8.59277C9.71372 9.13982 9.17124 9.55845 8.54462 9.79567C7.91799 10.0329 7.2354 10.078 6.58322 9.92537C5.93105 9.77272 5.33862 9.42914 4.88092 8.93811C4.42322 8.44709 4.12083 7.8307 4.01202 7.16697C3.90321 6.50323 3.99287 5.82199 4.26965 5.20946C4.54644 4.59693 4.9979 4.08067 5.56691 3.726C6.13591 3.37133 6.79687 3.19421 7.46612 3.21705C7.90982 3.23166 8.3463 3.33392 8.75065 3.518C9.155 3.70208 9.51928 3.96437 9.82271 4.28989C10.1261 4.6154 10.3628 4.99778 10.5191 5.41516C10.6754 5.83255 10.7483 6.27678 10.7337 6.72248ZM7.34747 8.80985C7.78029 8.81066 8.20361 8.68247 8.56388 8.44151C8.92414 8.20055 9.20515 7.85764 9.37133 7.45619C9.53752 7.05474 9.58142 6.6128 9.49747 6.18627C9.41353 5.75975 9.20551 5.36784 8.89975 5.06012C8.59399 4.7524 8.20422 4.54271 7.77978 4.4576C7.35534 4.37248 6.9153 4.41576 6.51535 4.58195C6.11541 4.74814 5.77353 5.02979 5.53298 5.39123C5.29244 5.75268 5.16404 6.17769 5.16404 6.61246C5.16297 6.90098 5.21869 7.18687 5.32799 7.45369C5.43729 7.72051 5.59801 7.963 5.80092 8.1672C6.00383 8.37141 6.24492 8.53331 6.51034 8.6436C6.77575 8.75389 7.06025 8.81039 7.34747 8.80985Z" fill="white"/>
<path d="M10.8634 3.87531C10.7595 3.87587 10.6566 3.85558 10.5606 3.81562C10.4647 3.77567 10.3776 3.71687 10.3046 3.64266C10.2316 3.56845 10.174 3.48033 10.1354 3.38348C10.0967 3.28663 10.0777 3.183 10.0795 3.07867C10.0796 2.97433 10.1002 2.87104 10.1402 2.77474C10.1802 2.67843 10.2387 2.59099 10.3123 2.51745C10.386 2.44391 10.4734 2.38571 10.5696 2.34618C10.6657 2.30665 10.7686 2.28658 10.8725 2.28712C11.0824 2.28927 11.283 2.37461 11.4306 2.52457C11.5781 2.67453 11.6608 2.87697 11.6605 3.08784C11.66 3.19222 11.6389 3.29546 11.5985 3.39163C11.5581 3.4878 11.4991 3.57498 11.425 3.64817C11.351 3.72136 11.2632 3.77911 11.1668 3.8181C11.0704 3.85708 10.9673 3.87652 10.8634 3.87531Z" fill="white"/>
</g>
<defs>
<clipPath id="clip0_36_488">
<rect width="13.1361" height="13.2231" fill="white" transform="translate(0.769775)"/>
</clipPath>
</defs>
</svg>
