<svg width="20" height="20" viewBox="0 0 20 20" fill="none" xmlns="http://www.w3.org/2000/svg">
<g clip-path="url(#clip0_157_406)">
<path d="M19.6125 1.57502C19.5024 2.09072 19.3846 2.60515 19.2822 3.12212C18.4205 7.33832 17.5603 11.5528 16.7015 15.7656C16.5595 16.4655 16.4119 17.1629 16.2721 17.864C16.0519 18.9792 15.0919 19.3667 14.3212 18.6439C13.2026 17.5947 12.0876 16.5413 10.9764 15.4837C10.8608 15.3732 10.7859 15.3465 10.6461 15.4646C9.6805 16.3118 8.70833 17.1451 7.73726 17.9821C7.68331 18.0291 7.62716 18.0761 7.57101 18.1168C7.19777 18.3822 6.80802 18.2273 6.69022 17.7357C6.57131 17.2276 6.48543 16.7107 6.38964 16.1962C6.07476 14.5137 5.76171 12.8302 5.4505 11.1459C5.44271 11.0848 5.42068 11.0272 5.38675 10.9793C5.35281 10.9314 5.30826 10.8951 5.25783 10.8741C3.94472 10.2179 2.63344 9.55608 1.324 8.88881C0.67001 8.55602 0.410178 7.7685 0.710747 7.06481C0.78875 6.89349 0.896908 6.74285 1.02829 6.62255C1.15968 6.50225 1.3114 6.41493 1.47373 6.3662C5.41454 4.86991 9.35461 3.3715 13.2939 1.87098C14.8166 1.29304 16.3448 0.7278 17.8564 0.123187C18.6921 -0.214685 19.389 0.135889 19.6125 1.05805V1.57502ZM15.1403 17.7459L18.5016 1.26128L1.70164 7.65037C1.77871 7.6999 1.81173 7.72785 1.85027 7.74563C3.14944 8.40359 4.4497 9.05774 5.74777 9.71952C5.79493 9.74307 5.84665 9.75183 5.89769 9.74491C5.94873 9.738 5.99728 9.71565 6.03843 9.68014C7.85726 8.51325 9.67646 7.34721 11.496 6.18202C12.473 5.55624 13.4496 4.93003 14.4258 4.3034C14.6647 4.14971 14.9003 4.09001 15.1348 4.29705C15.4365 4.56379 15.431 4.98423 15.1249 5.35385C13.2532 7.61311 11.3815 9.87236 9.50984 12.1316C9.46801 12.1824 9.42727 12.2358 9.37552 12.3006L15.1403 17.7459ZM7.30677 14.9057C7.3387 14.813 7.35301 14.7787 7.36292 14.7393C7.55999 13.9543 7.76148 13.1706 7.94864 12.3818C8.00165 12.148 8.10636 11.9339 8.25252 11.7607C9.37479 10.4135 10.4945 9.06367 11.6116 7.71134C11.6535 7.66053 11.692 7.60718 11.7316 7.55383L11.7118 7.5297L6.54708 10.8386C6.79811 12.1799 7.04694 13.5123 7.30677 14.9057ZM8.23931 15.9371L9.91391 14.4955L8.84815 13.4793L8.23931 15.9371Z" fill="black"/>
</g>
<defs>
<clipPath id="clip0_157_406">
<rect width="19.0174" height="19.0174" fill="white" transform="translate(0.595215)"/>
</clipPath>
</defs>
</svg>
