<svg width="14" height="13" viewBox="0 0 14 13" fill="none" xmlns="http://www.w3.org/2000/svg">
<g clip-path="url(#clip0_36_496)">
<path d="M0.00170898 13.0001C0.0799913 12.7268 0.158274 12.4687 0.236556 12.2105C0.475317 11.4044 0.711729 10.5982 0.955186 9.79275C0.968543 9.75273 0.972451 9.71053 0.966644 9.66899C0.960837 9.62746 0.945451 9.58755 0.921526 9.55198C0.254646 8.45227 -0.0378057 7.19241 0.0823396 5.93685C0.328929 3.21828 2.31965 0.971114 5.19104 0.25315C7.54969 -0.336839 9.70558 0.119389 11.5789 1.58062C12.7977 2.5138 13.6135 3.81991 13.878 5.26155C14.2694 7.26867 13.7489 9.07117 12.3265 10.6322C11.3098 11.7635 9.89248 12.526 8.32546 12.7846C6.7653 13.0594 5.27245 12.8497 3.85241 12.186C3.80257 12.1606 3.74772 12.1447 3.69112 12.1392C3.63451 12.1338 3.57729 12.1388 3.52285 12.1542C2.39923 12.4313 1.2751 12.7056 0.150445 12.977C0.106607 12.9842 0.0643348 12.9892 0.00170898 13.0001ZM1.68243 11.4666L1.85074 11.429C2.4676 11.28 3.08525 11.134 3.69976 10.9792C3.75453 10.9638 3.81234 10.9599 3.86896 10.9677C3.92559 10.9756 3.97958 10.9951 4.02698 11.0248C5.37109 11.7601 6.80835 11.9777 8.33251 11.661C11.5914 10.9836 13.5633 7.81166 12.5598 4.87039C11.6446 2.1952 8.74897 0.639968 5.77033 1.23791C4.52655 1.49302 3.40881 2.12038 2.59075 3.02252C1.77268 3.92466 1.30009 5.05108 1.2464 6.22679C1.19451 7.22244 1.45027 8.2112 1.98382 9.07768C2.07541 9.22951 2.21866 9.37629 2.24136 9.53607C2.26407 9.69586 2.15604 9.87156 2.10594 10.0422L1.68243 11.4666Z" fill="white"/>
<path d="M3.47095 5.01135C3.47327 4.75509 3.53272 4.50202 3.64558 4.26791C3.75845 4.0338 3.92231 3.82367 4.12695 3.65061C4.18733 3.59445 4.25954 3.55033 4.33912 3.52098C4.4187 3.49163 4.50395 3.47768 4.5896 3.47998C4.69215 3.47998 4.79548 3.493 4.89647 3.48504C5.08434 3.46986 5.19159 3.55735 5.25813 3.70195C5.45697 4.13577 5.65972 4.56958 5.84368 5.01063C5.85734 5.05466 5.86126 5.10078 5.85521 5.14625C5.84915 5.19171 5.83325 5.23559 5.80845 5.27525C5.67608 5.46434 5.53152 5.64591 5.37555 5.81897C5.32925 5.86204 5.30132 5.91908 5.29686 5.97964C5.2924 6.04019 5.31172 6.10021 5.35129 6.14867C5.89085 7.01123 6.7324 7.67834 7.73733 8.0401C7.89781 8.09795 7.98549 8.07987 8.09743 7.95479C8.27043 7.76029 8.44265 7.56363 8.61174 7.36552C8.73073 7.22525 8.80197 7.18983 8.97576 7.26357C9.47154 7.47325 9.9629 7.69137 10.4498 7.91791C10.4802 7.93741 10.5055 7.9629 10.5239 7.99253C10.5423 8.02217 10.5534 8.05521 10.5563 8.08927C10.5758 8.57442 10.4138 8.97498 9.94411 9.25117C9.3703 9.58883 8.76987 9.61268 8.135 9.44783C6.49108 9.01908 5.26909 8.06686 4.289 6.81096C3.96726 6.39956 3.67448 5.97659 3.54923 5.47409C3.51165 5.3208 3.49678 5.16318 3.47095 5.01135Z" fill="white"/>
</g>
<defs>
<clipPath id="clip0_36_496">
<rect width="14" height="13" fill="white"/>
</clipPath>
</defs>
</svg>
