<svg width="30" height="19" viewBox="0 0 30 19" fill="none" xmlns="http://www.w3.org/2000/svg">
<g clip-path="url(#clip0_157_408)">
<path d="M29.0607 16.691C29.0408 16.7084 29.024 16.729 29.0111 16.7519C28.9084 17.1228 28.6824 17.4485 28.3696 17.6766C28.0567 17.9047 27.6753 18.0217 27.2869 18.0088C26.1912 18.0212 25.0954 18.0212 23.9996 18.0088C23.7062 18.0036 23.4168 17.9411 23.1479 17.8248C22.8791 17.7085 22.6361 17.5408 22.433 17.3313C21.9193 16.8231 21.4519 16.276 20.9349 15.7762C20.2072 15.0699 19.459 14.3839 18.7091 13.708C18.4942 13.5466 18.265 13.4048 18.0242 13.2845C17.9917 13.3438 17.9694 13.3658 17.9694 13.3878C17.9694 14.184 17.9198 14.9835 17.9694 15.7779C18.0431 17.0535 17.3719 17.8106 15.9851 17.9648C13.4699 18.2426 11.2441 17.499 9.20667 16.093C7.49452 14.9073 6.10768 13.4116 4.90576 11.7397C3.07652 9.2488 1.68714 6.46928 0.796609 3.51913C0.653971 3.05499 0.568319 2.57556 0.5415 2.09117C0.498696 1.09854 1.16472 0.407423 2.17146 0.385402C3.31289 0.3583 4.45432 0.3583 5.59575 0.385402C5.9133 0.387466 6.22434 0.474738 6.4957 0.637912C6.76707 0.801086 6.9886 1.03405 7.13668 1.31197C7.31713 1.64194 7.46891 1.98648 7.5904 2.34187C8.34375 4.39658 9.26831 6.36829 10.5404 8.17569C10.6774 8.37049 10.8315 8.55512 10.9787 8.74484L11.102 8.90068C11.1123 8.77364 11.1226 8.70926 11.1226 8.6432C11.1345 7.52353 11.1345 6.40216 11.1585 5.28249C11.1756 4.48635 11.0284 3.75797 10.4959 3.12445C10.3117 2.92814 10.1731 2.69439 10.0897 2.43955C10.0063 2.18471 9.98014 1.91493 10.0131 1.64906C10.0794 1.29825 10.265 0.980432 10.5391 0.748403C10.8131 0.516373 11.1592 0.384094 11.5198 0.373544C13.1554 0.361122 14.79 0.361122 16.4234 0.373544C17.2675 0.373544 17.8376 0.966414 17.9027 1.92686C17.954 2.70436 17.9403 3.48695 17.942 4.26615C17.942 5.31298 17.9335 6.36151 17.93 7.40835C17.93 7.48796 17.9455 7.56588 17.9609 7.73357C18.2691 7.38124 18.543 7.09836 18.7793 6.78668C19.9085 5.27166 20.8501 3.62813 21.5838 1.89129C22.0615 0.797024 22.695 0.366772 23.9003 0.366772C24.8848 0.366772 25.8693 0.366772 26.8538 0.366772C27.6807 0.366772 28.3416 0.8597 28.4854 1.56437C28.5781 2.03839 28.5107 2.52941 28.2937 2.96184C27.8331 3.91043 27.3845 4.87087 26.8401 5.77203C26.0936 7.00858 25.2615 8.19262 24.467 9.40038C24.4002 9.50032 24.3369 9.60026 24.2599 9.71883C24.3848 9.85435 24.5064 9.99156 24.6331 10.1237C25.8813 11.4229 27.15 12.7001 28.1858 14.1806C28.5676 14.711 28.8628 15.2975 29.0607 15.9185V16.691ZM2.32898 2.13352C2.35466 2.30291 2.36665 2.42656 2.39404 2.55022C2.73647 4.05271 3.34599 5.45866 4.03085 6.83241C5.23791 9.24793 6.69837 11.5008 8.68618 13.376C10.3196 14.9174 12.1704 16.049 14.4938 16.2251C15.0454 16.2781 15.6021 16.2432 16.1426 16.1218C16.1426 15.5577 16.1426 15.0258 16.1426 14.494C16.1426 13.9621 16.1546 13.4641 16.1922 12.9525C16.2658 11.9209 16.9267 11.3907 17.9711 11.4873C18.4741 11.5196 18.9566 11.6962 19.3597 11.9954C20.1113 12.5765 20.8561 13.1727 21.5461 13.8215C22.2104 14.4482 22.8028 15.1478 23.4295 15.8152C23.5556 15.9609 23.7137 16.076 23.8918 16.1517C24.0699 16.2275 24.2631 16.2619 24.4567 16.2522C25.2734 16.2251 26.0918 16.2438 26.9085 16.2438H27.2184C27.2239 16.1988 27.2239 16.1533 27.2184 16.1083C27.2027 16.0372 27.1755 15.9692 27.138 15.9067C26.7288 15.3172 26.3641 14.6905 25.8967 14.1518C24.9584 13.0728 23.9619 12.0446 22.9946 10.991C22.3474 10.2863 22.272 9.60196 22.7395 8.77364C22.8165 8.63812 22.9107 8.50769 22.9946 8.37895C24.1605 6.70029 25.3008 5.003 26.2477 3.18882C26.4189 2.8602 26.549 2.51126 26.7134 2.13182C25.657 2.13182 24.6588 2.13182 23.6726 2.14368C23.5999 2.15975 23.5317 2.19125 23.4726 2.236C23.4134 2.28075 23.3648 2.33768 23.3302 2.40285C23.1709 2.68234 23.0631 2.98725 22.9244 3.2769C22.0529 5.11988 21.0564 6.88831 19.7227 8.4484C19.2244 9.02941 18.6491 9.52065 17.8958 9.75271C17.1425 9.98478 16.5432 9.68496 16.3086 8.96335C16.2045 8.62108 16.152 8.26548 16.1528 7.90805C16.134 6.09895 16.1391 4.28817 16.1374 2.47738V2.14876H12.0026C12.7628 3.08549 12.9665 4.14588 12.9511 5.27571C12.934 6.36998 12.9511 7.46255 12.9511 8.55682C12.9555 8.96972 12.9366 9.38253 12.8946 9.79337C12.7611 10.9249 11.7235 11.4449 10.7527 10.8334C10.3019 10.5419 9.89786 10.185 9.55423 9.77473C8.35573 8.3654 7.51678 6.73586 6.77371 5.06059C6.3919 4.19839 6.06831 3.30909 5.72245 2.42995C5.65739 2.26056 5.58548 2.12674 5.38002 2.12674L2.32898 2.13352Z" fill="black"/>
</g>
<defs>
<clipPath id="clip0_157_408">
<rect width="28.5261" height="17.659" fill="white" transform="translate(0.534668 0.358383)"/>
</clipPath>
</defs>
</svg>
