<svg width="21" height="13" viewBox="0 0 21 13" fill="none" xmlns="http://www.w3.org/2000/svg">
<g clip-path="url(#clip0_36_494)">
<path d="M21.0001 12.0236C20.9854 12.0365 20.9731 12.0516 20.9635 12.0685C20.888 12.3415 20.7216 12.5813 20.4913 12.7492C20.261 12.9171 19.9802 13.0033 19.6943 12.9938C18.8876 13.0029 18.0809 13.0029 17.2742 12.9938C17.0583 12.99 16.8452 12.9439 16.6472 12.8583C16.4493 12.7727 16.2704 12.6492 16.1209 12.495C15.7428 12.1209 15.3987 11.7181 15.0181 11.3502C14.4824 10.8302 13.9316 10.3252 13.3795 9.82766C13.2213 9.70884 13.0526 9.60449 12.8753 9.51591C12.8514 9.55955 12.835 9.57576 12.835 9.59197C12.835 10.1781 12.7984 10.7666 12.835 11.3515C12.8892 12.2905 12.3951 12.8479 11.3742 12.9614C9.52259 13.1659 7.88404 12.6184 6.38413 11.5834C5.1237 10.7105 4.10275 9.60943 3.21793 8.37864C1.8713 6.54494 0.848483 4.49874 0.1929 2.32694C0.0878948 1.98525 0.0248403 1.63231 0.00509677 1.27572C-0.0264139 0.544972 0.463893 0.036194 1.20502 0.019983C2.04531 3.09357e-05 2.8856 3.09357e-05 3.72588 0.019983C3.95965 0.0215019 4.18863 0.085749 4.3884 0.205873C4.58817 0.325996 4.75125 0.497495 4.86027 0.702093C4.9931 0.945006 5.10484 1.19865 5.19428 1.46027C5.74887 2.97289 6.4295 4.4244 7.366 5.75495C7.46683 5.89835 7.58027 6.03428 7.68867 6.17394L7.77942 6.28867C7.78698 6.19514 7.79455 6.14775 7.79455 6.09912C7.80337 5.27485 7.80337 4.44934 7.82101 3.62507C7.83362 3.03898 7.72522 2.50277 7.33323 2.03639C7.19763 1.89187 7.09556 1.71979 7.03417 1.53218C6.97278 1.34458 6.95353 1.14598 6.97779 0.950249C7.02658 0.691994 7.16321 0.458026 7.36499 0.287212C7.56676 0.116399 7.82152 0.0190196 8.08697 0.011253C9.29109 0.00210836 10.4944 0.00210836 11.6968 0.011253C12.3182 0.011253 12.7379 0.447706 12.7858 1.15476C12.8237 1.72713 12.8136 2.30324 12.8148 2.87687C12.8148 3.64751 12.8085 4.41941 12.806 5.19006C12.806 5.24867 12.8174 5.30603 12.8287 5.42948C13.0556 5.1701 13.2572 4.96185 13.4312 4.73241C14.2625 3.6171 14.9557 2.40718 15.4958 1.12857C15.8474 0.323006 16.3138 0.00626777 17.2011 0.00626777C17.9259 0.00626777 18.6506 0.00626777 19.3754 0.00626777C19.9841 0.00626777 20.4707 0.369146 20.5766 0.887899C20.6448 1.23686 20.5952 1.59833 20.4354 1.91668C20.0963 2.615 19.7661 3.32205 19.3653 3.98545C18.8157 4.89576 18.2032 5.76742 17.6183 6.65653C17.5692 6.7301 17.5225 6.80368 17.4658 6.89097C17.5578 6.99073 17.6473 7.09174 17.7406 7.189C18.6594 8.14545 19.5934 9.08569 20.356 10.1756C20.637 10.5661 20.8544 10.9978 21.0001 11.455V12.0236ZM1.32098 1.30689C1.33989 1.43159 1.34871 1.52262 1.36888 1.61365C1.62097 2.71974 2.06968 3.75475 2.57385 4.76607C3.46245 6.5443 4.5376 8.20281 6.00096 9.58324C7.2034 10.718 8.56593 11.551 10.2763 11.6807C10.6824 11.7197 11.0922 11.694 11.4901 11.6046C11.4901 11.1894 11.4901 10.7978 11.4901 10.4063C11.4901 10.0147 11.4989 9.64809 11.5267 9.27149C11.5809 8.51207 12.0674 8.12176 12.8363 8.19284C13.2065 8.21664 13.5617 8.34664 13.8585 8.56694C14.4118 8.99466 14.9601 9.4336 15.468 9.91121C15.9571 10.3726 16.3932 10.8876 16.8545 11.3789C16.9473 11.4861 17.0638 11.5709 17.1949 11.6267C17.326 11.6824 17.4682 11.7078 17.6108 11.7007C18.212 11.6807 18.8145 11.6944 19.4157 11.6944H19.6438C19.6479 11.6613 19.6479 11.6278 19.6438 11.5947C19.6323 11.5424 19.6123 11.4923 19.5846 11.4463C19.2834 11.0123 19.0149 10.5509 18.6708 10.1544C17.9801 9.36003 17.2465 8.6031 16.5344 7.82747C16.0579 7.30871 16.0025 6.80492 16.3466 6.19514C16.4033 6.09538 16.4726 5.99936 16.5344 5.90459C17.3927 4.66881 18.2322 3.41931 18.9292 2.08377C19.0552 1.84186 19.151 1.58497 19.272 1.30564C18.4943 1.30564 17.7595 1.30564 17.0335 1.31437C16.98 1.3262 16.9298 1.34939 16.8862 1.38234C16.8427 1.41528 16.8069 1.45719 16.7814 1.50516C16.6642 1.71092 16.5848 1.93538 16.4827 2.14862C15.8411 3.50536 15.1076 4.80723 14.1257 5.95571C13.7589 6.38344 13.3354 6.74507 12.7808 6.91591C12.2262 7.08675 11.7851 6.86603 11.6124 6.3348C11.5357 6.08284 11.4971 5.82105 11.4977 5.55792C11.4838 4.22612 11.4876 2.89308 11.4863 1.56003V1.31811H8.44241C9.00204 2.00771 9.15203 2.78833 9.14068 3.62008C9.12808 4.42564 9.14068 5.22996 9.14068 6.03552C9.14387 6.33949 9.12998 6.64339 9.09909 6.94584C9.00078 7.77883 8.23696 8.16166 7.52229 7.71149C7.19038 7.49691 6.89296 7.23418 6.63999 6.93212C5.75769 5.89461 5.14008 4.695 4.59306 3.46171C4.31198 2.82699 4.07376 2.17231 3.81915 1.52512C3.77126 1.40042 3.71832 1.3019 3.56707 1.3019L1.32098 1.30689Z" fill="white"/>
</g>
<defs>
<clipPath id="clip0_36_494">
<rect width="21" height="13" fill="white"/>
</clipPath>
</defs>
</svg>
