<svg width="17" height="13" viewBox="0 0 17 13" fill="none" xmlns="http://www.w3.org/2000/svg">
<g clip-path="url(#clip0_36_499)">
<path d="M4.00401e-05 4.77728C0.0223725 4.44867 0.051322 4.12091 0.0662104 3.79147C0.100123 3.08899 0.182836 2.39741 0.462406 1.74439C0.843713 0.852467 1.52361 0.32519 2.46241 0.20867C3.28607 0.108782 4.11434 0.0528195 4.94379 0.0410142C6.84123 0.00748311 8.73949 -0.0101166 10.6369 0.00329582C11.7949 0.0116786 12.9595 0.080415 14.1191 0.142448C14.8503 0.181008 15.5145 0.409021 16.0497 0.950548C16.4351 1.35065 16.6849 1.86476 16.7627 2.41837C16.8685 3.03 16.9346 3.64803 16.9603 4.26845C16.9984 5.46719 17.0067 6.66844 16.9943 7.86801C16.9871 8.59127 16.9435 9.31369 16.8636 10.0324C16.7916 10.6855 16.6204 11.3234 16.2019 11.8515C15.7833 12.3796 15.2242 12.7233 14.5476 12.7795C13.5344 12.8633 12.517 12.9061 11.5005 12.953C10.8652 12.9823 10.2283 13.0033 9.59227 12.9983C8.08193 12.9865 6.57159 12.9639 5.06125 12.9304C4.33751 12.9136 3.61377 12.8692 2.89086 12.8155C2.34247 12.7753 1.8098 12.6588 1.33668 12.3452C0.7031 11.9261 0.399544 11.2974 0.231636 10.5773C0.0744817 9.9067 0.0720004 9.22182 0.0306439 8.54031C0.024854 8.44139 0.00913841 8.34247 -0.00244141 8.24272L4.00401e-05 4.77728ZM8.07696 11.9974C8.37473 11.9974 8.58565 12.0024 8.79491 11.9974C10.421 11.9487 12.0472 11.9051 13.675 11.8414C14.0551 11.8338 14.4328 11.7775 14.799 11.6738C15.3474 11.5061 15.5972 11.0426 15.7486 10.5119C15.9496 9.80778 15.9446 9.08183 15.9761 8.36259C16.0409 6.89996 16.0304 5.4349 15.9446 3.97337C15.9157 3.46538 15.9033 2.95319 15.7478 2.46448C15.6518 2.16018 15.5509 1.86175 15.3028 1.63626C14.9894 1.35483 14.5882 1.19427 14.1696 1.18275C12.9934 1.11904 11.8164 1.05198 10.6386 1.02013C8.03809 0.949711 5.43925 1.0028 2.84206 1.1794C2.00831 1.23472 1.49136 1.68236 1.26472 2.49214C1.06704 3.19713 1.06786 3.92224 1.03643 4.64232C0.968185 6.11023 0.979782 7.58084 1.07117 9.04746C1.10321 9.54381 1.16899 10.0373 1.26803 10.5245C1.41526 11.2471 1.87928 11.6713 2.60054 11.7509C3.32179 11.8305 4.05463 11.8859 4.7825 11.9186C5.9074 11.9554 7.03643 11.9705 8.07696 11.9974Z" fill="white"/>
<path d="M6.3424 6.30965C6.3424 5.65412 6.36556 4.99691 6.33495 4.34305C6.30766 3.76716 6.86183 3.34299 7.44 3.67243C8.64016 4.35144 9.8486 5.01367 11.0562 5.6843C11.3151 5.82764 11.478 6.03721 11.4805 6.33564C11.483 6.63407 11.3225 6.8495 11.062 6.99033C9.84281 7.6509 8.62279 8.31649 7.4003 8.97705C6.96936 9.21009 6.50617 9.02567 6.37135 8.57635C6.34863 8.48404 6.33916 8.3889 6.34322 8.29385C6.34074 7.63245 6.3424 6.97105 6.3424 6.30965ZM7.34819 7.85124L10.1381 6.33145L7.34819 4.78315V7.85124Z" fill="white"/>
</g>
<defs>
<clipPath id="clip0_36_499">
<rect width="17" height="13" fill="white"/>
</clipPath>
</defs>
</svg>
