<svg width="18" height="18" viewBox="0 0 18 18" fill="none" xmlns="http://www.w3.org/2000/svg">
<g clip-path="url(#clip0_157_402)">
<path d="M17.8581 5.19462V12.6672C17.8448 12.7174 17.8342 12.7682 17.8264 12.8195C17.7878 13.1488 17.7699 13.4823 17.7134 13.8089C17.5773 14.6906 17.2016 15.5176 16.6279 16.1988C15.6636 17.3169 14.4072 17.7832 12.9828 17.8912C12.5957 17.9202 12.2072 17.9396 11.8188 17.9631H6.05772L5.78221 17.9313C5.16505 17.8704 4.53274 17.8718 3.93212 17.7376C1.92085 17.2892 0.683778 16.0244 0.225044 14.0082C0.0321821 13.153 0.0294268 12.2798 0.0225389 11.4107C0.00876308 9.79905 0.00876308 8.18459 0.0225389 6.56737C0.0308044 5.68726 0.045958 4.80438 0.227799 3.93811C0.411062 2.98167 0.8853 2.10593 1.58508 1.43174C2.28485 0.757549 3.17567 0.31813 4.13462 0.174117C4.9633 0.0524886 5.80028 -0.00303781 6.63769 0.00805885C8.00425 -0.00716317 9.37081 -0.00301171 10.7387 0.00805885C11.7499 0.00805885 12.7624 0.00805914 13.7694 0.18242C15.9253 0.560203 17.4228 2.07549 17.7548 4.33388C17.7933 4.61618 17.8223 4.9054 17.8581 5.19462ZM8.95616 16.3717V16.3399C9.60224 16.3399 10.2483 16.3537 10.8944 16.3399C11.7885 16.3178 12.6853 16.3537 13.5711 16.1752C14.8315 15.9206 15.6719 15.183 16.0383 13.9307C16.191 13.3362 16.2615 12.7234 16.2477 12.1096C16.2642 10.2977 16.2688 8.4858 16.2615 6.67392C16.2615 5.90313 16.2615 5.12958 16.1113 4.36986C15.8468 3.05938 15.0933 2.20003 13.786 1.85961C13.0407 1.66726 12.2706 1.66726 11.5171 1.65896C10.0389 1.64097 8.56079 1.64789 7.08402 1.65204C6.19962 1.65204 5.31245 1.6382 4.43907 1.79042C3.0973 2.03259 2.20738 2.79092 1.8561 4.14291C1.71005 4.79282 1.64572 5.45856 1.66462 6.12454C1.64992 8.03606 1.64992 9.94758 1.66462 11.8591C1.66984 12.4309 1.71587 13.0016 1.80237 13.5667C1.85622 14.0036 2.00601 14.4231 2.24091 14.7947C2.47581 15.1664 2.78997 15.481 3.16067 15.7158C3.75091 16.0734 4.42618 16.2646 5.11546 16.2693C6.39661 16.3233 7.67638 16.3413 8.95616 16.3717Z" fill="black"/>
<path d="M13.5496 9.13182C13.5207 10.0451 13.2227 10.9293 12.6934 11.6724C12.1641 12.4155 11.4272 12.9842 10.576 13.3064C9.72482 13.6286 8.79759 13.6899 7.91169 13.4826C7.02579 13.2752 6.22104 12.8085 5.59931 12.1415C4.97758 11.4745 4.56682 10.6372 4.41901 9.7356C4.2712 8.83399 4.39299 7.9086 4.76897 7.07656C5.14495 6.24451 5.75822 5.54322 6.53114 5.06144C7.30406 4.57967 8.2019 4.33907 9.11101 4.3701C9.71372 4.38994 10.3066 4.52886 10.8559 4.77891C11.4051 5.02895 11.9 5.38524 12.3122 5.82742C12.7243 6.2696 13.0457 6.78901 13.2581 7.35598C13.4704 7.92295 13.5694 8.52639 13.5496 9.13182ZM8.94983 11.9673C9.53776 11.9684 10.1128 11.7942 10.6022 11.4669C11.0916 11.1396 11.4733 10.6738 11.699 10.1285C11.9248 9.58316 11.9844 8.98282 11.8704 8.40344C11.7563 7.82407 11.4738 7.29169 11.0584 6.87369C10.6431 6.45569 10.1136 6.17086 9.53707 6.05523C8.96052 5.93961 8.36278 5.9984 7.8195 6.22416C7.27621 6.44991 6.81181 6.83249 6.48506 7.32347C6.15831 7.81446 5.9839 8.39178 5.9839 8.98237C5.98245 9.37429 6.05813 9.76264 6.2066 10.1251C6.35507 10.4875 6.57339 10.8169 6.84902 11.0943C7.12465 11.3717 7.45215 11.5916 7.81268 11.7414C8.17321 11.8913 8.55967 11.968 8.94983 11.9673Z" fill="black"/>
<path d="M13.7257 5.26405C13.5846 5.26481 13.4447 5.23724 13.3144 5.18297C13.184 5.1287 13.0658 5.04882 12.9666 4.94801C12.8674 4.84721 12.7893 4.72751 12.7367 4.59595C12.6842 4.46439 12.6584 4.32362 12.6608 4.1819C12.661 4.04017 12.689 3.89987 12.7433 3.76904C12.7976 3.63822 12.8771 3.51945 12.9771 3.41955C13.0772 3.31965 13.196 3.24059 13.3265 3.1869C13.4571 3.13321 13.597 3.10594 13.7381 3.10667C14.0232 3.10959 14.2956 3.22552 14.4961 3.42922C14.6966 3.63293 14.8088 3.90792 14.8084 4.19436C14.8077 4.33614 14.7791 4.47639 14.7242 4.60702C14.6693 4.73765 14.5893 4.85608 14.4886 4.95551C14.388 5.05493 14.2688 5.13337 14.1378 5.18633C14.0069 5.23928 13.8668 5.26569 13.7257 5.26405Z" fill="black"/>
</g>
<defs>
<clipPath id="clip0_157_402">
<rect width="17.8438" height="17.962" fill="white" transform="translate(0.0146484)"/>
</clipPath>
</defs>
</svg>
