<svg width="20" height="19" viewBox="0 0 20 19" fill="none" xmlns="http://www.w3.org/2000/svg">
<path d="M0.984863 18.0177C1.0912 17.6464 1.19754 17.2958 1.30388 16.9452C1.6282 15.8501 1.94934 14.755 2.28005 13.6609C2.29819 13.6065 2.3035 13.5492 2.29562 13.4927C2.28773 13.4363 2.26683 13.3821 2.23433 13.3338C1.32845 11.84 0.931187 10.1286 1.09439 8.42307C1.42935 4.7302 4.13351 1.6777 8.03397 0.702424C11.2379 -0.099007 14.1664 0.520726 16.7111 2.50564C18.3667 3.77325 19.4749 5.54745 19.8342 7.50575C20.3659 10.2322 19.6588 12.6807 17.7266 14.8011C16.3456 16.3379 14.4203 17.3737 12.2917 17.725C10.1724 18.0982 8.14456 17.8134 6.2156 16.9118C6.14789 16.8773 6.07339 16.8557 5.99649 16.8483C5.9196 16.8409 5.84188 16.8478 5.76792 16.8685C4.24162 17.245 2.71462 17.6176 1.1869 17.9862C1.12735 17.9961 1.06993 18.0029 0.984863 18.0177ZM3.26793 15.9345L3.49655 15.8835C4.33449 15.6811 5.17349 15.4827 6.00824 15.2726C6.08263 15.2516 6.16116 15.2462 6.23808 15.257C6.31499 15.2677 6.38834 15.2941 6.45273 15.3344C8.27854 16.3333 10.2309 16.6289 12.3013 16.1987C16.7281 15.2785 19.4067 10.9698 18.0435 6.97441C16.8004 3.34047 12.867 1.22787 8.82086 2.04011C7.13134 2.38664 5.61301 3.23883 4.50177 4.46429C3.39052 5.68974 2.74857 7.21985 2.67563 8.81691C2.60515 10.1694 2.95256 11.5125 3.67733 12.6895C3.80174 12.8958 3.99634 13.0951 4.02717 13.3122C4.05801 13.5293 3.91127 13.7679 3.84321 13.9997L3.26793 15.9345Z" fill="black"/>
<path d="M5.69727 7.16571C5.70043 6.81761 5.78117 6.47384 5.93449 6.15583C6.0878 5.83782 6.31039 5.55238 6.58837 5.31731C6.67038 5.24102 6.76847 5.18108 6.87657 5.14122C6.98467 5.10135 7.10047 5.08239 7.21682 5.08552C7.35613 5.08552 7.49649 5.1032 7.63367 5.0924C7.88888 5.07177 8.03456 5.19061 8.12495 5.38704C8.39504 5.97633 8.67046 6.56562 8.92035 7.16472C8.9389 7.22454 8.94423 7.28719 8.936 7.34895C8.92778 7.41071 8.90618 7.47031 8.8725 7.52419C8.69268 7.78104 8.49632 8.02768 8.28445 8.26277C8.22156 8.32127 8.18361 8.39876 8.17755 8.48102C8.1715 8.56327 8.19775 8.64479 8.25149 8.71062C8.98442 9.88232 10.1276 10.7885 11.4927 11.2799C11.7106 11.3585 11.8297 11.3339 11.9818 11.164C12.2168 10.8998 12.4507 10.6327 12.6804 10.3636C12.8421 10.173 12.9388 10.1249 13.1749 10.2251C13.8484 10.5099 14.5158 10.8062 15.1772 11.1139C15.2185 11.1404 15.2529 11.175 15.2779 11.2153C15.3029 11.2556 15.3179 11.3004 15.3219 11.3467C15.3484 12.0057 15.1283 12.5498 14.4903 12.925C13.7108 13.3837 12.8952 13.4161 12.0328 13.1922C9.79976 12.6097 8.13983 11.3163 6.80849 9.61027C6.37144 9.05143 5.97374 8.47687 5.8036 7.79428C5.75256 7.58607 5.73236 7.37196 5.69727 7.16571Z" fill="black"/>
</svg>
