<svg width="24" height="18" viewBox="0 0 24 18" fill="none" xmlns="http://www.w3.org/2000/svg">
<path d="M-4.72125e-05 6.48937C0.0302889 6.043 0.0696134 5.59777 0.0898375 5.15027C0.135903 4.19603 0.248259 3.2566 0.628023 2.36955C1.14598 1.15797 2.06955 0.441728 3.34479 0.283448C4.46364 0.147762 5.58875 0.0717442 6.71547 0.055708C9.29291 0.0101599 11.8715 -0.0137473 14.4489 0.00447196C16.0219 0.015859 17.6039 0.109229 19.1791 0.193493C20.1723 0.245874 21.0746 0.555602 21.8015 1.2912C22.3251 1.83469 22.6643 2.53306 22.77 3.28507C22.9138 4.1159 23.0035 4.95542 23.0385 5.79819C23.0902 7.42653 23.1015 9.05829 23.0846 10.6878C23.0749 11.6702 23.0156 12.6516 22.9071 13.6279C22.8093 14.5149 22.5768 15.3815 22.0082 16.0989C21.4397 16.8163 20.6802 17.2831 19.7611 17.3594C18.3848 17.4733 17.0028 17.5314 15.6219 17.5951C14.759 17.635 13.8939 17.6635 13.0299 17.6566C10.9783 17.6407 8.92663 17.6099 6.87501 17.5644C5.8919 17.5416 4.90879 17.4813 3.92679 17.4084C3.18187 17.3537 2.4583 17.1954 1.81563 16.7696C0.954979 16.2002 0.542632 15.3462 0.314549 14.368C0.101073 13.4571 0.0977026 12.5268 0.0415246 11.601C0.0336597 11.4666 0.0123119 11.3323 -0.00341797 11.1968L-4.72125e-05 6.48937ZM10.9715 16.297C11.376 16.297 11.6625 16.3038 11.9468 16.297C14.1557 16.231 16.3646 16.1718 18.5758 16.0852C19.0922 16.0749 19.6052 15.9984 20.1027 15.8575C20.8476 15.6297 21.1869 15 21.3925 14.2792C21.6656 13.3227 21.6588 12.3366 21.7015 11.3596C21.7895 9.37279 21.7753 7.38267 21.6588 5.39736C21.6195 4.70731 21.6026 4.01156 21.3914 3.3477C21.2611 2.93435 21.124 2.52897 20.7869 2.22266C20.3612 1.84037 19.8162 1.62227 19.2477 1.60663C17.65 1.52008 16.0511 1.42899 14.4512 1.38572C10.9187 1.29007 7.38848 1.36218 3.8605 1.60207C2.72796 1.67722 2.02573 2.28529 1.71788 3.38528C1.44934 4.34293 1.45047 5.3279 1.40777 6.30604C1.31507 8.30003 1.33082 10.2977 1.45496 12.2899C1.49848 12.9642 1.58783 13.6345 1.72237 14.2963C1.92236 15.2779 2.55268 15.8541 3.53242 15.9622C4.51217 16.0704 5.50764 16.1456 6.49637 16.19C8.02442 16.2401 9.55808 16.2606 10.9715 16.297Z" fill="black"/>
<path d="M8.61543 8.57107C8.61543 7.68061 8.64689 6.78787 8.60532 5.89968C8.56824 5.11739 9.32103 4.54121 10.1064 4.98872C11.7367 5.91107 13.3782 6.81064 15.0186 7.7216C15.3703 7.91632 15.5916 8.201 15.595 8.60637C15.5984 9.01175 15.3804 9.3044 15.0265 9.4957C13.3703 10.393 11.7131 11.2971 10.0525 12.1944C9.46709 12.511 8.8379 12.2605 8.65476 11.6501C8.6239 11.5247 8.61103 11.3955 8.61656 11.2664C8.61318 10.3679 8.61543 9.46951 8.61543 8.57107ZM9.98168 10.6651L13.7714 8.60068L9.98168 6.4975V10.6651Z" fill="black"/>
</svg>
